<svg xmlns="http://www.w3.org/2000/svg" width="199.345" height="256.934"><path class="a" fill="#fff" d="M99.673 8.683c47.608 16.677 79.489 28.78 91.419 33.38l-.215 20.886v.075c-.013 11.1.038 21.681.086 31.914.079 16.551.146 30.844-.079 42.017-.314 15.553-1.153 19.19-1.409 19.946l-.178.453-.126.5a69.945 69.945 0 01-10.742 22.492 134.259 134.259 0 01-18.707 21.117c-14.542 13.627-31.675 25.513-46.791 36-3.829 2.657-7.534 5.227-11.01 7.7l-.06-.09-2.187 1.634-2.189-1.637-.061.092c-3.475-2.471-7.18-5.042-11.009-7.7-15.116-10.486-32.249-22.372-46.791-36a134.262 134.262 0 01-18.707-21.117 69.945 69.945 0 01-10.742-22.492l-.126-.5-.177-.453c-.256-.754-1.1-4.39-1.41-19.946-.225-11.173-.158-25.467-.079-42.017.049-10.232.1-20.813.086-31.913v-.075l-.215-20.886c11.931-4.6 43.811-16.7 91.419-33.38m0-8.683C35.974 22.266 0 36.478 0 36.478l.274 26.555c.054 47.706-1.068 89.1 1.957 96.831 10.907 43.044 68.21 75.124 97.275 96.946l.167.125.167-.125c29.064-21.822 86.368-53.9 97.274-96.946 3.026-7.728 1.9-49.124 1.957-96.831l.274-26.555S163.372 22.266 99.673 0z"/><path class="a" fill="#fff" d="M182.72 135.796c-.038 2.22-.086 4.192-.14 5.946h-8.203c.055-1.765.1-3.78.145-6.087.186-10.761.121-24.328.047-40.043v-.015c-.049-10.251-.1-20.852-.086-32v-.218l.1-9.474c-14.064-5.322-38.234-14.305-70.56-25.718v-8.69c37.936 13.363 65 23.506 78.814 28.777l-.156 15.189v.15c-.013 11.124.038 21.716.086 31.96.076 15.759.14 29.37-.047 40.223zM16.578 95.574c.049-10.244.1-20.838.086-31.962v-.15l-.157-15.189a2550.829 2550.829 0 0124.147-9.063v8.741a2629.47 2629.47 0 00-15.893 5.953l.1 9.48v.22c.013 11.143-.038 21.743-.086 31.995v.021c-.074 15.708-.139 29.275.047 40.036.2 11.349.629 15.73.823 17.168l.043.109.126.5.252.994a53.78 53.78 0 008.308 17.159 119.928 119.928 0 0016.459 18.516c13.666 12.806 30.273 24.327 44.926 34.492l.032.022q1.985 1.378 3.883 2.7v10c-2.762-1.943-5.638-3.938-8.587-5.984-14.885-10.326-31.755-22.029-45.858-35.245a128.055 128.055 0 01-17.583-19.816 61.858 61.858 0 01-9.525-19.826l-.252-.994-.169-.433c-.247-1.235-.837-5.557-1.072-19.212-.189-10.862-.124-24.472-.05-40.232z"/><path class="a" fill="#fff" d="M62.92 117.187v51.408a4.764 4.764 0 004.764 4.764h63.978a4.764 4.764 0 004.764-4.764v-51.408a4.764 4.764 0 00-4.764-4.764H67.684a4.764 4.764 0 00-4.764 4.764zm32.459 21.675a7.715 7.715 0 118.585 0 1.544 1.544 0 00-.631 1.681l1.814 13.485a2.368 2.368 0 01-2.287 2.978h-6.372a2.367 2.367 0 01-2.287-2.978l1.814-13.484a1.547 1.547 0 00-.636-1.682zm17.081-30.56V81.328a12.787 12.787 0 10-25.573 0v26.97H73.955v-26.97A25.718 25.718 0 0199.673 55.61a25.718 25.718 0 0125.718 25.718v26.97z"/></svg>