<svg xmlns="http://www.w3.org/2000/svg" width="109" height="30"><g data-name="Group 47977"><g data-name="Group 47976"><g data-name="Group 43531"><path data-name="Path 445" d="M63.332 8.483l6.253-2.325-6.253-2.443V.483l10.714 4.314v2.686l-10.714 4.335z" fill="#a100ff"/><path data-name="Path 446" d="M100.547 21.131h4.7c-.073-1.844-.913-2.663-2.3-2.663-1.091.04-2.1.639-2.383 2.677zm2.492 7.991c-3.623 0-6.086-2.159-6.086-6.325v-.24c0-4.194 2.611-6.493 5.992-6.493 3.118 0 5.727 1.751 5.727 5.893v1.5h-8.157c.146 2.25 1.106 3.115 2.611 3.115a2.162 2.162 0 002.3-1.631h3.236c-.384 2.381-2.295 4.181-5.624 4.181zM88.574 16.31h3.5v2.3a3.739 3.739 0 013.762-2.468v3.447c-2.369 0-3.762.72-3.762 2.8v6.447h-3.5zm-2.542 12.539h-3.5v-1.846a3.824 3.824 0 01-3.644 2.111c-2.25 0-3.908-1.364-3.908-4.315v-8.475h3.523v7.99c0 1.439.572 2.111 1.824 2.111a2.111 2.111 0 002.2-2.324v-7.777h3.5zm-15.585-16.32v3.788h2.4v2.611h-2.4v5.946c0 .931.431 1.364 1.245 1.364a2.974 2.974 0 001.218-.212v2.762a7.07 7.07 0 01-2 .266c-2.729 0-3.994-1.245-3.994-3.789v-6.331H65.45v-2.61h1.466v-2.351zm-17.621 3.788h3.5v1.87a4.09 4.09 0 013.79-2.13c2.275 0 3.788 1.366 3.788 4.408v8.391h-3.483v-7.853c0-1.466-.6-2.112-1.87-2.112a2.1 2.1 0 00-2.2 2.325v7.644h-3.5zm-10.26 4.814h4.7c-.072-1.844-.912-2.663-2.3-2.663-1.079.04-2.085.639-2.371 2.677zm2.491 7.991c-3.623 0-6.086-2.159-6.086-6.325v-.24c0-4.194 2.61-6.493 5.992-6.493 3.117 0 5.727 1.751 5.727 5.893v1.5h-8.143c.147 2.25 1.106 3.115 2.611 3.115a2.163 2.163 0 002.3-1.631h3.235c-.386 2.377-2.324 4.176-5.593 4.176zm-13.139 0c-3.474 0-5.992-2.159-5.992-6.4v-.166c0-4.242 2.664-6.493 5.992-6.493 2.85 0 5.2 1.438 5.487 4.721h-3.326c-.212-1.219-.839-2-2.063-2-1.485 0-2.518 1.17-2.518 3.641v.368c0 2.543.913 3.688 2.545 3.688a2.346 2.346 0 002.277-2.25h3.191c-.214 2.85-2.151 4.887-5.554 4.887zm-13.037 0c-3.475 0-5.993-2.159-5.993-6.4v-.166c0-4.242 2.664-6.493 5.993-6.493 2.851 0 5.2 1.438 5.488 4.721h-3.322c-.213-1.219-.839-2-2.065-2-1.485 0-2.517 1.17-2.517 3.641v.368c0 2.543.913 3.688 2.544 3.688a2.345 2.345 0 002.277-2.25h3.183c-.206 2.85-2.151 4.887-5.553 4.887zM7.447 24.687v-1.225H6.086c-1.725 0-2.611.479-2.611 1.6v.12c0 .866.528 1.464 1.706 1.464a2.053 2.053 0 002.3-1.963zm-3.329 4.435c-2.25 0-4.122-1.152-4.122-3.69v-.146c0-3.09 2.664-4.1 5.92-4.1h1.558v-.6c0-1.246-.552-2-1.844-2a1.721 1.721 0 00-1.893 1.634H.414c.239-2.786 2.442-4.15 5.414-4.15s5.18 1.292 5.18 4.408v8.389H7.547V27.43a4 4 0 01-3.425 1.692z"/></g></g></g></svg>