<svg xmlns="http://www.w3.org/2000/svg" width="13.979" height="13.98" viewBox="0 0 13.979 13.98">
  <g id="Group_44861" data-name="Group 44861" transform="translate(-1720.728 -4238.564)">
    <path id="Path_108536" data-name="Path 108536" d="M1727.7,4252.544a6.99,6.99,0,1,1,7.01-6.9A6.978,6.978,0,0,1,1727.7,4252.544Zm.792-5.146c0-.77.012-1.54,0-2.31a.77.77,0,1,0-1.539-.014c-.013,1.527-.008,3.055,0,4.582a.753.753,0,0,0,.521.758.768.768,0,0,0,1.018-.782C1728.5,4248.889,1728.489,4248.144,1728.489,4247.4Zm-1.8-5.709a1.026,1.026,0,0,0,2.053-.009,1.026,1.026,0,1,0-2.053.009Z" transform="translate(0)" fill="#969696"/>
    <path id="Path_108537" data-name="Path 108537" d="M1804.172,4317.065c0,.745.014,1.49,0,2.234a.768.768,0,0,1-1.018.782.753.753,0,0,1-.521-.758c-.007-1.527-.012-3.055,0-4.582a.77.77,0,1,1,1.539.014C1804.183,4315.525,1804.172,4316.295,1804.172,4317.065Z" transform="translate(-75.683 -69.666)" fill="#fff"/>
    <path id="Path_108538" data-name="Path 108538" d="M1799.335,4267.179a1.026,1.026,0,1,1,2.053-.009,1.026,1.026,0,0,1-2.053.009Z" transform="translate(-72.647 -25.489)" fill="#fff"/>
  </g>
</svg>
