<svg xmlns="http://www.w3.org/2000/svg" width="20.5" height="20.5" viewBox="0 0 20.5 20.5">
	<defs>
		<style>
		.a {
			fill: #fff;
		}
		</style>
	</defs>
	<g transform="translate(340.224 -239.373)">
		<path class="a" d="M-329.974,239.373a10.262,10.262,0,0,0-10.25,10.25,10.262,10.262,0,0,0,10.25,10.25,10.261,10.261,0,0,0,10.25-10.25A10.261,10.261,0,0,0-329.974,239.373Zm0,18.947a8.707,8.707,0,0,1-8.7-8.7,8.706,8.706,0,0,1,8.7-8.7,8.706,8.706,0,0,1,8.7,8.7A8.707,8.707,0,0,1-329.974,258.32Z" />
		<path class="a" d="M-330.5,247.242a1.3,1.3,0,0,0,1.3-1.3,1.3,1.3,0,0,0-1.3-1.3,1.3,1.3,0,0,0-1.3,1.3A1.305,1.305,0,0,0-330.5,247.242Z" />
		<path class="a" d="M-328.922,253.057h-.276V248.57a.777.777,0,0,0-.776-.776h-1.053a.777.777,0,0,0-.776.776.778.778,0,0,0,.776.777h.276v3.71h-.276a.777.777,0,0,0-.776.776.778.778,0,0,0,.776.777h2.105a.778.778,0,0,0,.776-.777A.777.777,0,0,0-328.922,253.057Z" />
	</g>
</svg>