<svg xmlns="http://www.w3.org/2000/svg" width="209.719" height="172.851"><g data-name="Group 105253" fill="#fff"><path data-name="Path 222539" d="M200.297 0H9.421A9.428 9.428 0 00-.003 9.417v154.016a9.428 9.428 0 009.421 9.417h190.879a9.428 9.428 0 009.421-9.417V9.417A9.428 9.428 0 00200.297 0zM6.239 9.417a3.177 3.177 0 013.177-3.173h76.135L99.86 31.851H6.24zm197.235 154.016a3.177 3.177 0 01-3.177 3.173H9.42a3.178 3.178 0 01-3.177-3.173V38.097h197.234zm0-131.585h-96.46L92.704 6.241h107.593a3.178 3.178 0 013.177 3.173z"/><path data-name="Path 222540" d="M48.91 10.506a8.543 8.543 0 108.543 8.543 8.553 8.553 0 00-8.543-8.543zm0 10.842a2.3 2.3 0 112.3-2.3 2.3 2.3 0 01-2.3 2.3z"/><path data-name="Path 222541" d="M28.682 10.506a8.543 8.543 0 108.543 8.543 8.553 8.553 0 00-8.543-8.543zm0 10.842a2.3 2.3 0 112.3-2.3 2.3 2.3 0 01-2.3 2.3z"/><path data-name="Path 222542" d="M69.13 10.506a8.543 8.543 0 108.543 8.543 8.553 8.553 0 00-8.543-8.543zm0 10.842a2.3 2.3 0 112.3-2.3 2.3 2.3 0 01-2.3 2.3z"/><path data-name="Path 222543" d="M73.906 132.984c2.43 2.43 6.4 5.824 9.63 5.824a3.727 3.727 0 002.726-1.121l18.593-18.593 18.593 18.593c3.329 3.331 9.17-1.519 12.357-4.7s8.029-9.029 4.7-12.355l-18.589-18.597 18.593-18.59c3.325-3.326-1.519-9.168-4.7-12.357s-9.039-8.035-12.357-4.7l-18.593 18.593-18.593-18.593c-3.324-3.329-9.168 1.517-12.357 4.7s-8.029 9.031-4.7 12.357l18.593 18.593-18.593 18.593c-3.326 3.327 1.517 9.17 4.7 12.357zm20.512-28.739a3.12 3.12 0 000-4.414L74.667 80.078a26.339 26.339 0 018.225-8.231L102.647 91.6a3.121 3.121 0 004.414 0l19.754-19.755a26.361 26.361 0 018.232 8.229l-19.751 19.753a3.12 3.12 0 000 4.414l19.751 19.753a26.461 26.461 0 01-8.228 8.229l-19.755-19.753a3.121 3.121 0 00-4.414 0l-19.755 19.753a26.452 26.452 0 01-8.227-8.229z"/></g></svg>