<svg xmlns="http://www.w3.org/2000/svg" width="39" height="39"><defs><clipPath id="a"><path fill="none" d="M0 0h39v39H0z"/></clipPath></defs><g data-name="Repeat Grid 1" clip-path="url(#a)"><g transform="translate(-50 -82)"><circle cx="19.5" cy="19.5" r="19.5" transform="translate(50 82)" fill="#fff"/><g data-name="Group 98240"><path data-name="Combined Shape" d="M69.809 112v-1.168c.5-.037 1.055-.553 1.552-1.456l.09-.176.018-.037.014-.028.014-.028.093-.192.014-.03.027-.059v-.01l.09-.2.013-.03.018-.043.014-.032.087-.216.01-.028.01-.028.022-.056.084-.229.081-.237.04-.122.077-.248.03-.1h-.022l-.3-.092-.3-.1-.3-.1-.15-.054-.3-.111-.088-.034-.065-.025-.296-.131-.309-.125-.268-.115v-1.51a26.003 26.003 0 003.125-1.763v-.041a23.972 23.972 0 00.003-3.089l-.013-.17a25.763 25.763 0 00-3.115-1.758v-1.512l.268-.117.309-.125.307-.121.152-.054.3-.111.15-.054.3-.1.3-.1.283-.088-.07-.237-.08-.24-.01-.03-.029-.084-.085-.231-.086-.225-.021-.05-.008-.019c-.02-.048-.039-.1-.059-.142l-.09-.2-.019-.04-.011-.024-.015-.034-.093-.191-.051-.1-.09-.175c-.5-.9-1.049-1.42-1.552-1.457V91c.994.03 1.967.85 2.74 2.306l.108.211.105.218.063.138.035.077v.01l.1.232.1.24.047.122.092.25.018.054.014.042.011.03.086.26.042.134.108-.024.1-.021.042-.009.275-.056.269-.05.265-.044.26-.038.256-.032.249-.025c.3-.028.6-.042.874-.042 1.519 0 2.569.412 3.035 1.191l.008.026a2.664 2.664 0 01-.122 2.46l-.086.181a7.461 7.461 0 01-.563.939l-.137.193-.145.194c-.074.1-.15.192-.233.292l-.164.2-.173.2-.181.2c-.106.116-.228.243-.373.39.161.163.276.284.373.391l.181.2.173.2.164.2c.083.1.159.2.233.293l.145.194.137.192a7.538 7.538 0 01.563.939l.086.181a2.665 2.665 0 01.122 2.463l-.013.022c-.466.78-1.516 1.192-3.036 1.192-.276 0-.57-.014-.873-.042l-.249-.026-.255-.048a11.06 11.06 0 01-.26-.038l-.265-.044-.269-.05-.275-.056-.041-.012-.1-.022-.073-.017-.077.248-.086.26-.01.03-.016.044-.018.054-.092.25a4.408 4.408 0 01-.047.122l-.1.24-.1.232-.017.037a8.267 8.267 0 01-.086.189l-.105.218-.108.21c-.764 1.455-1.737 2.274-2.73 2.305zm6.226-9.72l-.069.061-.231.2-.239.2-.246.2-.1.075-.029.023-.254.2-.26.194c-.068.051-.136.1-.206.15l-.061.043-.227.159c0 .046-.008.091-.013.136l-.035.329-.04.325-.022.161-.046.319-.024.157-.053.311-.056.306-.06.3-.055.253c.42.1.838.172 1.24.224a9.192 9.192 0 001.18.083c1 0 1.751-.22 1.961-.574l.022-.038c.183-.381-.006-1.329-1.142-2.743a12.842 12.842 0 00-.935-1.054zm-3.265 2.371l-.136.082-.3.179-.31.177-.313.175-.318.17-.258.136c.467.18.934.343 1.388.481l.04-.194.014-.073.015-.072.056-.294.051-.3.025-.151.046-.309zm1.441-3.951v.1l.007.351v.708l-.006.323c.314-.239.621-.487.912-.738-.283-.25-.591-.5-.913-.744zm1.924-4.5a9.192 9.192 0 00-1.184.084c-.4.052-.828.13-1.266.23.032.14.057.254.081.368l.06.3.056.306.053.311.016.081.013.078.046.319.022.161.04.325.035.329.24.174.028.02.239.173.26.193.254.2.029.022.1.076.246.2.239.2.231.2.069.061a12.846 12.846 0 00.941-1.043c1.13-1.426 1.319-2.373 1.135-2.755l-.022-.038c-.21-.354-.961-.575-1.961-.575zm-3.642.634c-.443.136-.9.295-1.363.473l.259.135.318.17.313.176.31.177.3.179.121.073v-.03l-.011-.07v-.021c0-.021-.007-.042-.009-.062l-.05-.3-.013-.068-.017-.057v-.027l-.056-.294L72.53 97zm-2.683 6.222v-3.111a1.558 1.558 0 110 3.111z" fill="#00baff"/><path data-name="Combined Shape" d="M69.752 112h-.06c-.922 0-1.8-.728-2.539-2.1l-.105-.2a10.6 10.6 0 01-.2-.427l-.1-.226-.028-.067-.02-.048-.092-.236-.09-.244-.043-.124-.083-.26-.041-.13-.08-.264-.015-.055-.012-.04-.012-.04-.068-.251-.157.042-.078.021-.277.069c-.123.029-.267.062-.408.092l-.267.055-.262.048-.257.043-.253.037a9.883 9.883 0 01-1.305.094c-1.392 0-2.35-.373-2.772-1.078l-.013-.021a2.515 2.515 0 01.177-2.366l.09-.176a7.857 7.857 0 01.577-.913l.14-.188.148-.189c.074-.094.151-.188.236-.287l.167-.193c.057-.064.115-.129.175-.193l.182-.194c.117-.123.244-.251.386-.391l.167-.161-.168-.161a17.511 17.511 0 01-.386-.39l-.182-.194-.175-.193-.167-.193c-.1-.112-.17-.2-.236-.287l-.148-.189-.14-.188a7.772 7.772 0 01-.577-.913l-.089-.176a2.515 2.515 0 01-.177-2.367l.013-.021c.421-.704 1.379-1.077 2.77-1.077a9.892 9.892 0 011.307.094l.253.036.257.043.262.049.267.054.408.092.277.07.209.054.054.018.038-.138.011-.037.012-.042.015-.055.08-.264.041-.129.085-.254.043-.124.09-.243.092-.237.02-.048.028-.067.1-.226c.064-.142.13-.282.2-.427l.105-.2c.74-1.381 1.618-2.109 2.54-2.109h.06v1.169h-.055c-.476 0-1 .488-1.479 1.373l-.09.173-.089.185-.087.192-.086.2-.085.208-.083.217-.08.224-.077.233-.039.119-.075.244-.072.252-.017.064-.018.064-.007.028.2.069.3.105.079.024.075.028.3.114.152.058.306.122.308.13.31.133.241.109.167-.075v1.443l-.166-.08c-.522.249-1.042.518-1.544.8-.459.255-.911.524-1.344.8l-.005.064c0 .056-.008.111-.012.166l-.019.337c-.017.334-.027.681-.03 1.032v.176c0 .392.01.8.03 1.207l.019.337v.104a27.752 27.752 0 002.898 1.606l.166-.08v1.443l-.166-.074-.242.108-.31.134-.308.129-.306.122-.152.058-.3.114-.068.028-.076.028-.3.106-.233.078.036.14.018.064.017.065.072.251.075.244.006.02.032.1.077.233.08.225.083.217.084.208.086.2.087.191.089.183.09.174c.478.885 1 1.372 1.479 1.372h.055V112zm-6.317-9.78a13.792 13.792 0 00-1.136 1.2c-1.189 1.427-1.375 2.341-1.174 2.69v.005c.191.318.849.508 1.761.508a9.05 9.05 0 001.328-.108 14.611 14.611 0 001.681-.361l-.036-.183-.055-.3-.051-.309-.048-.314-.044-.318-.04-.323a17.314 17.314 0 01-.035-.328l-.024-.26-.028-.018-.279-.189-.263-.196-.025-.016c-.083-.059-.165-.117-.245-.177l-.261-.192-.255-.193-.126-.1-.246-.193-.242-.191-.16-.135zm3.4 2.39l.027.2.023.153.048.3.051.3.044.238c.381-.13.775-.277 1.17-.437l-.251-.131-.316-.171-.314-.175-.31-.178zm-1.355-4.065c-.4.288-.79.588-1.16.894.351.291.74.592 1.156.891l-.008-.3v-1.06l.01-.348v-.076zm-2.588-4.286c-.912 0-1.57.19-1.761.508v.005c-.2.349-.015 1.264 1.174 2.691a13.931 13.931 0 001.136 1.2l.16-.135.239-.2.246-.193.126-.1.255-.193.261-.193.266-.192.272-.189.279-.189.04-.026.013-.13q.016-.165.035-.327l.04-.323.044-.319.048-.314.051-.309.055-.3.059-.3a14.749 14.749 0 00-1.7-.367 9.008 9.008 0 00-1.338-.105zm4.16.824l-.013.061-.054.291-.051.3-.048.3-.032.225.154-.091.31-.177.314-.175.316-.171.251-.131a20.94 20.94 0 00-1.149-.433zm2.7 5.973a1.556 1.556 0 110-3.111v3.11z" fill="#00d702"/></g></g></g></svg>