<svg xmlns="http://www.w3.org/2000/svg" width="112.527" height="53.321"><path d="M4.352 41.688H0v11.44h3.264v-3.856h1.232a5.08 5.08 0 003.3-.943 3.353 3.353 0 001.151-2.752v-.065a3.591 3.591 0 00-1.119-2.824 5.107 5.107 0 00-3.476-1zm1.472 3.9a1.377 1.377 0 01-.4 1.08 1.762 1.762 0 01-1.215.361h-.944v-2.88h.96a1.913 1.913 0 011.184.319 1.253 1.253 0 01.416 1.057zm4.24-4.507h2.848v12.048h-2.848zm11.023 4.208a3.308 3.308 0 00-1.192-.569 6.138 6.138 0 00-1.56-.183 6.331 6.331 0 00-1.576.183 3.649 3.649 0 00-1.224.552 2.893 2.893 0 00-.84.952 3.124 3.124 0 00-.36 1.32h2.688a1.3 1.3 0 01.3-.7 1.044 1.044 0 01.84-.3q.688 0 .9.361a1.936 1.936 0 01.208.967v.193h-.8a6.983 6.983 0 00-3.272.632 2.2 2.2 0 00-1.176 2.1 2.574 2.574 0 00.232 1.145 2.145 2.145 0 00.632.775 2.509 2.509 0 00.9.448 3.941 3.941 0 001.072.145 3.074 3.074 0 001.592-.353 2.7 2.7 0 00.888-.815v.975h2.771v-5.423a3.542 3.542 0 00-.264-1.433 2.482 2.482 0 00-.759-.972zm-1.824 4.912a1.039 1.039 0 01-.408.863 1.593 1.593 0 01-1.016.32 1.13 1.13 0 01-.752-.208.72.72 0 01-.24-.576.728.728 0 01.4-.712 2.99 2.99 0 011.264-.2h.752zm8.304.845a.839.839 0 01-.632-.223.911.911 0 01-.216-.657V46.71h1.648v-1.952h-1.648v-1.742h-2.864v1.744h-1.008v1.952h1.008v3.728a2.832 2.832 0 00.76 2.185 3.128 3.128 0 002.184.7 4.79 4.79 0 00.912-.08 8.78 8.78 0 00.672-.16v-2.176a1.684 1.684 0 01-.384.111 2.57 2.57 0 01-.432.026zm5.643-10.093a3.562 3.562 0 00-2.383.759 2.864 2.864 0 00-.9 2.313v.735h-1.056v1.952h1.056v6.416h2.847v-6.416h1.7V44.76h-1.7v-.735a.955.955 0 01.224-.664.949.949 0 01.736-.248 2.809 2.809 0 01.432.031 3.179 3.179 0 01.352.08v-2.1a5.426 5.426 0 00-.6-.128 4.727 4.727 0 00-.708-.043zm9.35 4.735a4.138 4.138 0 00-1.449-.855 5.359 5.359 0 00-1.8-.3 5.308 5.308 0 00-1.816.3 4.126 4.126 0 00-1.449.88 4.083 4.083 0 00-.976 1.384 4.518 4.518 0 00-.352 1.816v.128a4.455 4.455 0 00.352 1.808 3.773 3.773 0 00.976 1.345 4.208 4.208 0 001.449.832 5.531 5.531 0 001.8.288 5.4 5.4 0 001.8-.3 4.3 4.3 0 001.465-.857 4.013 4.013 0 00.96-1.368 4.552 4.552 0 00.352-1.832v-.128a4.418 4.418 0 00-.352-1.792 4.049 4.049 0 00-.96-1.349zm-1.6 3.32a2.7 2.7 0 01-.416 1.618 1.431 1.431 0 01-1.232.567 1.447 1.447 0 01-1.248-.567 2.754 2.754 0 01-.416-1.65v-.13a2.589 2.589 0 01.423-1.6 1.472 1.472 0 011.241-.55 1.433 1.433 0 011.232.565 2.7 2.7 0 01.416 1.618zm6.831-2.584V44.76h-2.864v8.368h2.864v-3.967a1.564 1.564 0 01.7-1.441 3.656 3.656 0 012.008-.4v-2.674a2.907 2.907 0 00-1.64.408 2.907 2.907 0 00-1.068 1.37zm16.848-.135a2.989 2.989 0 00-.56-.985 2.349 2.349 0 00-.872-.576 3.052 3.052 0 00-1.1-.191 3.565 3.565 0 00-1.512.328 3.279 3.279 0 00-1.256 1.063 2.2 2.2 0 00-.872-1.048 2.661 2.661 0 00-1.4-.343 2.824 2.824 0 00-1.632.448 3.093 3.093 0 00-.992 1.056V44.76h-2.864v8.368h2.864v-4.847a1.44 1.44 0 01.352-1.049 1.241 1.241 0 01.928-.359 1.013 1.013 0 01.784.311 1.363 1.363 0 01.288.952v4.992h2.832v-4.847a1.44 1.44 0 01.352-1.049 1.241 1.241 0 01.928-.359 1.015 1.015 0 01.784.311 1.364 1.364 0 01.288.952v4.992h2.864v-5.471a4.091 4.091 0 00-.204-1.368z"/><path d="M6.464 33.785l-2.192-6.1H0v11.44h2.928v-7.12l2.768 7.12h1.088l2.8-7.12v7.12h3.264v-11.44H8.656zm14.672-2.496a3.308 3.308 0 00-1.192-.569 6.139 6.139 0 00-1.56-.183 6.325 6.325 0 00-1.576.183 3.639 3.639 0 00-1.224.552 2.893 2.893 0 00-.84.952 3.125 3.125 0 00-.36 1.32h2.688a1.3 1.3 0 01.3-.7 1.043 1.043 0 01.84-.3q.688 0 .9.361a1.936 1.936 0 01.208.967v.193h-.8a6.98 6.98 0 00-3.272.632 2.2 2.2 0 00-1.176 2.1 2.575 2.575 0 00.232 1.145 2.135 2.135 0 00.632.775 2.509 2.509 0 00.9.448 3.941 3.941 0 001.072.145 3.074 3.074 0 001.592-.353 2.7 2.7 0 00.888-.815v.975h2.784v-5.423a3.543 3.543 0 00-.264-1.433 2.491 2.491 0 00-.772-.972zm-1.824 4.912a1.039 1.039 0 01-.408.863 1.593 1.593 0 01-1.016.32 1.129 1.129 0 01-.752-.208.72.72 0 01-.24-.576.727.727 0 01.4-.712 2.99 2.99 0 011.264-.2h.752zm9.898-5.664a3.038 3.038 0 00-1.735.459 2.964 2.964 0 00-1.016 1.119V30.76h-2.864v8.368h2.864v-4.675a1.611 1.611 0 01.392-1.2 1.413 1.413 0 011.032-.382 1.124 1.124 0 01.911.342 1.627 1.627 0 01.289 1.062v4.851h2.864v-5.44a3.282 3.282 0 00-.76-2.376 2.646 2.646 0 00-1.977-.773zm9.589 5.04a1.639 1.639 0 01-.383 1.2 1.406 1.406 0 01-1.04.384 1.1 1.1 0 01-.889-.353 1.609 1.609 0 01-.3-1.056V30.76h-2.864v5.456a3.986 3.986 0 00.216 1.384 2.648 2.648 0 00.6.969 2.242 2.242 0 00.88.567 3.277 3.277 0 001.12.185 3.035 3.035 0 001.688-.416 2.788 2.788 0 00.967-1.072v1.295h2.865V30.76h-2.865zm8.081-8.624a3.563 3.563 0 00-2.384.759 2.864 2.864 0 00-.9 2.313v.735H42.54v1.952h1.056v6.416h2.847v-6.416h1.7V30.76h-1.7v-.735a.95.95 0 01.225-.664.945.945 0 01.735-.248 2.791 2.791 0 01.432.031 3.251 3.251 0 01.353.08v-2.1a5.493 5.493 0 00-.6-.128 4.722 4.722 0 00-.708-.043zm8.704 4.336a3.308 3.308 0 00-1.192-.569 6.139 6.139 0 00-1.56-.183 6.325 6.325 0 00-1.576.183 3.639 3.639 0 00-1.224.552 2.893 2.893 0 00-.84.952 3.125 3.125 0 00-.36 1.32h2.688a1.3 1.3 0 01.3-.7 1.043 1.043 0 01.84-.3q.687 0 .9.361a1.936 1.936 0 01.208.967v.193h-.8a6.98 6.98 0 00-3.272.632 2.2 2.2 0 00-1.176 2.1 2.575 2.575 0 00.232 1.145 2.135 2.135 0 00.632.775 2.493 2.493 0 00.9.448 3.936 3.936 0 001.072.145 3.074 3.074 0 001.592-.353 2.7 2.7 0 00.888-.815v.975h2.784v-5.423a3.543 3.543 0 00-.264-1.433 2.491 2.491 0 00-.772-.972zm-1.824 4.912a1.039 1.039 0 01-.408.863 1.593 1.593 0 01-1.016.32 1.128 1.128 0 01-.752-.208.72.72 0 01-.24-.576.727.727 0 01.4-.712 2.987 2.987 0 011.264-.2h.752zm9.408.672a1.416 1.416 0 01-.993.351 1.444 1.444 0 01-1.232-.552 2.738 2.738 0 01-.416-1.656v-.128a2.571 2.571 0 01.416-1.592 1.413 1.413 0 011.185-.536 1.271 1.271 0 01.936.313 1.6 1.6 0 01.407.9h2.688a3.853 3.853 0 00-.424-1.615 3.268 3.268 0 00-.919-1.072 3.706 3.706 0 00-1.272-.577 6.176 6.176 0 00-1.48-.175 4.994 4.994 0 00-1.737.3 4.207 4.207 0 00-1.416.855 4.007 4.007 0 00-.96 1.376 4.644 4.644 0 00-.352 1.856v.128a4.785 4.785 0 00.336 1.857 3.628 3.628 0 00.928 1.327 3.864 3.864 0 001.393.816 5.362 5.362 0 001.743.273 4.476 4.476 0 003.089-.952 3.45 3.45 0 001.119-2.536h-2.576a1.609 1.609 0 01-.463 1.039zm8.111.173a.84.84 0 01-.632-.223.911.911 0 01-.216-.657V32.71h1.648v-1.952h-1.648v-1.742h-2.864v1.744h-1.008v1.952h1.008v3.728a2.828 2.828 0 00.76 2.185 3.128 3.128 0 002.184.7 4.79 4.79 0 00.912-.08 8.78 8.78 0 00.672-.16v-2.176a1.684 1.684 0 01-.384.111 2.571 2.571 0 01-.432.026zm7.344-1.469a1.64 1.64 0 01-.384 1.2 1.4 1.4 0 01-1.04.384 1.1 1.1 0 01-.888-.353 1.609 1.609 0 01-.3-1.056V30.76h-2.863v5.456a3.987 3.987 0 00.215 1.384 2.661 2.661 0 00.6.969 2.257 2.257 0 00.88.567 3.285 3.285 0 001.12.185 3.03 3.03 0 001.688-.416 2.783 2.783 0 00.968-1.072v1.295h2.864V30.76h-2.864zm7.232-3.153V30.76h-2.864v8.368h2.864v-3.967a1.564 1.564 0 01.7-1.441 3.656 3.656 0 012.008-.4v-2.674a2.907 2.907 0 00-1.64.408 2.908 2.908 0 00-1.068 1.37zm3.872-1.664h2.864v8.368h-2.864zM91.151 27a1.569 1.569 0 00-1.12.424 1.406 1.406 0 00-.448 1.065 1.374 1.374 0 00.448 1.055 1.58 1.58 0 001.12.416 1.608 1.608 0 001.128-.416 1.364 1.364 0 00.456-1.055 1.4 1.4 0 00-.456-1.065A1.6 1.6 0 0091.151 27zm8.64 3.537a3.04 3.04 0 00-1.736.459 2.964 2.964 0 00-1.016 1.119V30.76h-2.864v8.368h2.864v-4.675a1.615 1.615 0 01.392-1.2 1.413 1.413 0 011.032-.382 1.128 1.128 0 01.912.342 1.633 1.633 0 01.288 1.062v4.851h2.864v-5.44a3.278 3.278 0 00-.76-2.376 2.645 2.645 0 00-1.976-.773zm9.872.223v1.195a2.921 2.921 0 00-.976-1.032 2.987 2.987 0 00-1.616-.386 3.445 3.445 0 00-1.384.28 3.231 3.231 0 00-1.128.808 3.9 3.9 0 00-.76 1.271 4.715 4.715 0 00-.28 1.673v.128a4.883 4.883 0 00.28 1.712 3.694 3.694 0 00.76 1.263 3.173 3.173 0 001.128.777 3.63 3.63 0 001.384.263 2.909 2.909 0 00.872-.128 2.831 2.831 0 00.744-.352 2.9 2.9 0 00.568-.48 2.777 2.777 0 00.408-.576v1.281a1.915 1.915 0 01-.408 1.271 1.7 1.7 0 01-1.368.488 1.591 1.591 0 01-1.112-.311 1.447 1.447 0 01-.424-.777h-2.848a3.61 3.61 0 00.376 1.289 2.963 2.963 0 00.84.984 3.829 3.829 0 001.312.615 6.992 6.992 0 001.856.216 5.381 5.381 0 003.448-.96 3.438 3.438 0 001.192-2.848V30.76zm.08 3.928a2.054 2.054 0 01-.448 1.4 1.533 1.533 0 01-1.216.51 1.485 1.485 0 01-1.2-.51 2.051 2.051 0 01-.432-1.37v-.128a2.134 2.134 0 01.416-1.378 1.489 1.489 0 011.232-.517 1.5 1.5 0 011.224.51 2.076 2.076 0 01.424 1.37z" fill="#4c4c4c"/><path d="M3.264 20.52h3.7v-2.336h-3.7v-1.968h4.64v-2.528h-7.9v11.44h8.16V22.6h-4.9zm11.696-3.983a3.04 3.04 0 00-1.736.459 2.964 2.964 0 00-1.016 1.119V16.76H9.344v8.368h2.864v-4.675a1.615 1.615 0 01.392-1.2 1.413 1.413 0 011.032-.382 1.128 1.128 0 01.912.342 1.633 1.633 0 01.288 1.062v4.851h2.864v-5.44a3.278 3.278 0 00-.76-2.376 2.646 2.646 0 00-1.976-.773zm9.871 1.418a2.912 2.912 0 00-.976-1.032 2.984 2.984 0 00-1.616-.386 3.448 3.448 0 00-1.384.28 3.231 3.231 0 00-1.128.808 3.92 3.92 0 00-.76 1.271 4.715 4.715 0 00-.28 1.673v.128a4.883 4.883 0 00.28 1.712 3.709 3.709 0 00.76 1.263 3.173 3.173 0 001.128.777 3.635 3.635 0 001.384.263 2.908 2.908 0 00.872-.128 2.83 2.83 0 00.744-.352 2.865 2.865 0 00.568-.48 2.7 2.7 0 00.408-.576v1.281a1.915 1.915 0 01-.408 1.271 1.693 1.693 0 01-1.368.488 1.593 1.593 0 01-1.112-.311 1.453 1.453 0 01-.424-.777h-2.847a3.629 3.629 0 00.375 1.289 2.986 2.986 0 00.84.984 3.829 3.829 0 001.312.615 7 7 0 001.856.216 5.379 5.379 0 003.448-.96 3.438 3.438 0 001.192-2.848V16.76h-2.864zm.08 2.733a2.054 2.054 0 01-.447 1.4 1.535 1.535 0 01-1.217.51 1.485 1.485 0 01-1.2-.51 2.05 2.05 0 01-.432-1.37v-.128a2.14 2.14 0 01.416-1.378 1.49 1.49 0 011.232-.517 1.5 1.5 0 011.224.51 2.071 2.071 0 01.424 1.37zM30.703 13a1.569 1.569 0 00-1.12.424 1.406 1.406 0 00-.448 1.065 1.374 1.374 0 00.448 1.055 1.58 1.58 0 001.12.416 1.608 1.608 0 001.128-.416 1.364 1.364 0 00.456-1.055 1.4 1.4 0 00-.456-1.065A1.6 1.6 0 0030.703 13zm-1.424 3.76h2.864v8.368h-2.864zm10.064-.223a3.04 3.04 0 00-1.736.459 2.964 2.964 0 00-1.016 1.119V16.76h-2.864v8.368h2.864v-4.675a1.615 1.615 0 01.392-1.2 1.415 1.415 0 011.032-.382 1.128 1.128 0 01.912.342 1.633 1.633 0 01.288 1.062v4.851h2.864v-5.44a3.278 3.278 0 00-.76-2.376 2.645 2.645 0 00-1.976-.773zm11.248 1.04a3.844 3.844 0 00-1.36-.785 5.146 5.146 0 00-1.632-.255 5.148 5.148 0 00-1.776.3 4.123 4.123 0 00-1.44.88 4.185 4.185 0 00-.96 1.384 4.5 4.5 0 00-.352 1.816v.128a4.59 4.59 0 00.344 1.825 3.769 3.769 0 00.952 1.343 3.9 3.9 0 001.424.825 5.7 5.7 0 001.824.28 5.037 5.037 0 002.976-.769 3.067 3.067 0 001.264-2.191h-2.688a1.22 1.22 0 01-.408.7 1.568 1.568 0 01-1.048.288 1.65 1.65 0 01-1.224-.456 1.96 1.96 0 01-.52-1.287h5.888v-.753a4.973 4.973 0 00-.344-1.936 3.782 3.782 0 00-.92-1.337zm-4.592 2.416a1.952 1.952 0 01.528-1.168 1.482 1.482 0 011.072-.4 1.385 1.385 0 011.072.4 1.784 1.784 0 01.4 1.168zm13.967-2.416a3.831 3.831 0 00-1.359-.785 5.155 5.155 0 00-1.632-.255 5.154 5.154 0 00-1.777.3 4.141 4.141 0 00-1.44.88 4.2 4.2 0 00-.96 1.384 4.518 4.518 0 00-.352 1.816v.128a4.572 4.572 0 00.345 1.825 3.766 3.766 0 00.951 1.343 3.914 3.914 0 001.425.825 5.7 5.7 0 001.823.28 5.033 5.033 0 002.976-.769 3.068 3.068 0 001.265-2.191h-2.688a1.221 1.221 0 01-.409.7 1.563 1.563 0 01-1.047.288 1.652 1.652 0 01-1.225-.456 1.97 1.97 0 01-.52-1.287h5.889v-.753a4.954 4.954 0 00-.345-1.936 3.756 3.756 0 00-.92-1.337zm-4.591 2.416a1.951 1.951 0 01.527-1.168 1.484 1.484 0 011.073-.4 1.385 1.385 0 011.072.4 1.779 1.779 0 01.4 1.168zm9.759-1.569V16.76h-2.863v8.368h2.863v-3.967a1.562 1.562 0 01.7-1.441 3.654 3.654 0 012.008-.4v-2.674a2.91 2.91 0 00-1.641.408 2.908 2.908 0 00-1.067 1.37zM70.43 13a1.569 1.569 0 00-1.12.424 1.406 1.406 0 00-.448 1.065 1.374 1.374 0 00.448 1.055 1.58 1.58 0 001.12.416 1.607 1.607 0 001.128-.416 1.364 1.364 0 00.456-1.055 1.4 1.4 0 00-.456-1.065A1.6 1.6 0 0070.43 13zm-1.424 3.76h2.864v8.368h-2.864zm10.064-.223a3.04 3.04 0 00-1.736.459 2.972 2.972 0 00-1.016 1.119V16.76h-2.864v8.368h2.864v-4.675a1.615 1.615 0 01.392-1.2 1.415 1.415 0 011.032-.382 1.128 1.128 0 01.912.342 1.633 1.633 0 01.288 1.062v4.851h2.864v-5.44a3.278 3.278 0 00-.76-2.376 2.644 2.644 0 00-1.976-.773zm9.872 1.418a2.921 2.921 0 00-.976-1.032 2.985 2.985 0 00-1.616-.386 3.448 3.448 0 00-1.384.28 3.23 3.23 0 00-1.128.808 3.92 3.92 0 00-.76 1.271 4.715 4.715 0 00-.28 1.673v.128a4.883 4.883 0 00.28 1.712 3.709 3.709 0 00.76 1.263 3.173 3.173 0 001.128.777 3.634 3.634 0 001.384.263 2.909 2.909 0 00.872-.128 2.831 2.831 0 00.744-.352 2.868 2.868 0 00.568-.48 2.738 2.738 0 00.408-.576v1.281a1.915 1.915 0 01-.408 1.271 1.7 1.7 0 01-1.368.488 1.593 1.593 0 01-1.112-.311 1.453 1.453 0 01-.424-.777h-2.848a3.652 3.652 0 00.376 1.289 2.975 2.975 0 00.84.984 3.829 3.829 0 001.312.615 7 7 0 001.856.216 5.381 5.381 0 003.448-.96 3.438 3.438 0 001.192-2.848V16.76h-2.864zm.08 2.733a2.049 2.049 0 01-.448 1.4 1.532 1.532 0 01-1.216.51 1.485 1.485 0 01-1.2-.51 2.051 2.051 0 01-.432-1.37v-.128a2.134 2.134 0 01.416-1.378 1.49 1.49 0 011.232-.517 1.5 1.5 0 011.224.51 2.071 2.071 0 01.424 1.37zm16.383 2.104l1.841-3.616h-2.5l-.832 1.632-1.44-1.76a4.326 4.326 0 001.719-1.208 2.529 2.529 0 00.569-1.624 2.3 2.3 0 00-.288-1.16 2.581 2.581 0 00-.768-.84 3.531 3.531 0 00-1.1-.5 5.029 5.029 0 00-1.312-.168 5.157 5.157 0 00-1.424.193 3.6 3.6 0 00-1.168.559 2.7 2.7 0 00-.8.945 2.793 2.793 0 00-.289 1.3 3.182 3.182 0 00.168.943 3.966 3.966 0 00.537 1.057 5.064 5.064 0 00-1.864 1.4 3.03 3.03 0 00-.648 1.929 3.53 3.53 0 00.287 1.456 3.064 3.064 0 00.817 1.088 3.41 3.41 0 001.256.679 5.534 5.534 0 001.655.233 4.843 4.843 0 001.832-.3 5.238 5.238 0 001.257-.729l.672.832h3.728zm-4.471.025a1.566 1.566 0 01-.616.119 1.407 1.407 0 01-1.088-.4 1.454 1.454 0 01-.369-1.025 1.191 1.191 0 01.225-.752 1.957 1.957 0 01.544-.479l1.808 2.176a1.5 1.5 0 01-.504.361zm1.008-5.6a2.347 2.347 0 01-.856.628 4.364 4.364 0 01-.48-.66 1.238 1.238 0 01-.176-.629.994.994 0 01.263-.732.918.918 0 01.681-.267.8.8 0 01.615.25.9.9 0 01.233.637 1.224 1.224 0 01-.28.776z" fill="#7f7f7f"/><path d="M.064.688h3.312v11.44H.064zm10.735 2.849a3.039 3.039 0 00-1.735.459 2.975 2.975 0 00-1.017 1.119V3.76H5.184v8.368h2.863V7.453a1.611 1.611 0 01.393-1.2 1.413 1.413 0 011.032-.382 1.124 1.124 0 01.911.342 1.627 1.627 0 01.289 1.062v4.851h2.864v-5.44a3.282 3.282 0 00-.76-2.376 2.646 2.646 0 00-1.977-.773zm8.272 6.509a.84.84 0 01-.632-.223.911.911 0 01-.216-.657V5.71h1.648V3.758h-1.648V2.016h-2.864V3.76h-1.008v1.952h1.008V9.44a2.828 2.828 0 00.76 2.185 3.128 3.128 0 002.184.7 4.79 4.79 0 00.912-.08 8.78 8.78 0 00.672-.16V9.909a1.684 1.684 0 01-.384.111 2.571 2.571 0 01-.432.026zm9.008-5.469a3.844 3.844 0 00-1.36-.785 5.147 5.147 0 00-1.632-.255 5.144 5.144 0 00-1.776.3 4.123 4.123 0 00-1.44.88 4.169 4.169 0 00-.96 1.384 4.5 4.5 0 00-.352 1.816v.128a4.572 4.572 0 00.344 1.825 3.757 3.757 0 00.952 1.343 3.9 3.9 0 001.424.825 5.705 5.705 0 001.824.28 5.037 5.037 0 002.976-.769 3.067 3.067 0 001.264-2.191h-2.688a1.225 1.225 0 01-.408.7 1.568 1.568 0 01-1.048.288 1.65 1.65 0 01-1.224-.456 1.96 1.96 0 01-.52-1.287h5.888V7.85a4.973 4.973 0 00-.344-1.936 3.781 3.781 0 00-.92-1.337zm-4.592 2.416a1.946 1.946 0 01.528-1.168 1.482 1.482 0 011.072-.4 1.385 1.385 0 011.072.4 1.785 1.785 0 01.4 1.168zM30.463.081h2.848v12.048h-2.848zm4.512 0h2.848v12.048h-2.848zM40.91 0a1.569 1.569 0 00-1.12.424 1.406 1.406 0 00-.448 1.065 1.374 1.374 0 00.448 1.055 1.58 1.58 0 001.12.416 1.607 1.607 0 001.128-.416 1.364 1.364 0 00.456-1.055 1.4 1.4 0 00-.456-1.065A1.6 1.6 0 0040.91 0zm-1.424 3.76h2.864v8.368h-2.864zM49.63 4.955a2.922 2.922 0 00-.976-1.032 2.985 2.985 0 00-1.616-.386 3.445 3.445 0 00-1.384.28 3.231 3.231 0 00-1.128.808 3.92 3.92 0 00-.76 1.271 4.715 4.715 0 00-.28 1.673v.128a4.883 4.883 0 00.28 1.712 3.709 3.709 0 00.76 1.263 3.173 3.173 0 001.128.777 3.631 3.631 0 001.384.263 2.909 2.909 0 00.872-.128 2.83 2.83 0 00.744-.352 2.865 2.865 0 00.568-.48 2.741 2.741 0 00.408-.576v1.281a1.915 1.915 0 01-.408 1.271 1.7 1.7 0 01-1.368.488 1.593 1.593 0 01-1.112-.311 1.453 1.453 0 01-.424-.777H43.47a3.651 3.651 0 00.376 1.289 2.975 2.975 0 00.84.984 3.829 3.829 0 001.312.615 7 7 0 001.856.216 5.381 5.381 0 003.448-.96 3.438 3.438 0 001.192-2.848V3.76H49.63zm.08 2.733a2.049 2.049 0 01-.448 1.4 1.532 1.532 0 01-1.216.51 1.485 1.485 0 01-1.2-.51 2.05 2.05 0 01-.432-1.37V7.59a2.134 2.134 0 01.416-1.378 1.49 1.49 0 011.232-.517 1.5 1.5 0 011.224.51 2.076 2.076 0 01.424 1.37zm11.36-3.111a3.844 3.844 0 00-1.36-.785 5.146 5.146 0 00-1.632-.255 5.148 5.148 0 00-1.776.3 4.123 4.123 0 00-1.44.88 4.185 4.185 0 00-.96 1.384 4.5 4.5 0 00-.352 1.816v.128a4.59 4.59 0 00.344 1.825 3.769 3.769 0 00.952 1.343 3.9 3.9 0 001.424.825 5.705 5.705 0 001.824.28 5.037 5.037 0 002.976-.769 3.067 3.067 0 001.264-2.191h-2.688a1.22 1.22 0 01-.408.7 1.568 1.568 0 01-1.048.288 1.65 1.65 0 01-1.224-.456 1.96 1.96 0 01-.52-1.287h5.888V7.85a4.973 4.973 0 00-.344-1.936 3.782 3.782 0 00-.92-1.337zm-4.592 2.416a1.952 1.952 0 01.528-1.168 1.482 1.482 0 011.072-.4 1.385 1.385 0 011.072.4 1.785 1.785 0 01.4 1.168zM68.99 3.537a3.04 3.04 0 00-1.736.459 2.964 2.964 0 00-1.016 1.119V3.76h-2.864v8.368h2.864V7.453a1.614 1.614 0 01.392-1.2 1.413 1.413 0 011.032-.382 1.128 1.128 0 01.912.342 1.633 1.633 0 01.288 1.062v4.851h2.864v-5.44a3.278 3.278 0 00-.76-2.376 2.646 2.646 0 00-1.976-.773zm8.703 6.479a2.554 2.554 0 01-.432.032.837.837 0 01-.631-.223.907.907 0 01-.216-.657V5.712h1.648V3.76H76.41V2.016h-2.865V3.76h-1.007v1.952h1.007V9.44a2.828 2.828 0 00.761 2.185 3.125 3.125 0 002.184.7 4.772 4.772 0 00.911-.08c.267-.054.491-.108.673-.16V9.909a1.707 1.707 0 01-.381.107z" fill="#b2b2b2"/></svg>