<svg xmlns="http://www.w3.org/2000/svg" width="72" height="34.117"><path d="M2.823 26.572H0v7.42h2.117v-2.5h.8a3.3 3.3 0 002.138-.612 2.175 2.175 0 00.747-1.785v-.042a2.329 2.329 0 00-.726-1.832 3.312 3.312 0 00-2.253-.649zm.955 2.532a.893.893 0 01-.26.7 1.143 1.143 0 01-.788.234h-.612V28.17h.623a1.241 1.241 0 01.768.207.813.813 0 01.27.686zm2.75-2.926h1.847v7.815H6.528zm7.15 2.73a2.146 2.146 0 00-.773-.369 3.981 3.981 0 00-1.012-.119 4.105 4.105 0 00-1.022.119 2.367 2.367 0 00-.794.358 1.876 1.876 0 00-.545.617 2.028 2.028 0 00-.234.856h1.744a.843.843 0 01.192-.451.677.677 0 01.545-.192q.447 0 .581.234a1.255 1.255 0 01.135.627v.125h-.519a4.529 4.529 0 00-2.122.41 1.426 1.426 0 00-.763 1.364 1.67 1.67 0 00.15.743 1.391 1.391 0 00.41.5 1.626 1.626 0 00.581.291 2.555 2.555 0 00.7.094 2 2 0 001.033-.229 1.753 1.753 0 00.576-.529v.632h1.806v-3.518a2.3 2.3 0 00-.171-.929 1.61 1.61 0 00-.498-.634zm-1.183 3.186a.674.674 0 01-.265.56 1.033 1.033 0 01-.659.208.733.733 0 01-.488-.135.467.467 0 01-.156-.374.472.472 0 01.259-.462 1.94 1.94 0 01.82-.13h.488zm5.387.549a.544.544 0 01-.41-.145.591.591 0 01-.14-.426V29.83h1.069v-1.267h-1.069v-1.13h-1.858v1.13h-.654v1.266h.654v2.418a1.837 1.837 0 00.493 1.417 2.029 2.029 0 001.417.451 3.108 3.108 0 00.592-.052c.173-.035.318-.07.436-.1v-1.411a1.091 1.091 0 01-.249.072 1.667 1.667 0 01-.281.019zm3.663-6.548a2.31 2.31 0 00-1.546.492 1.858 1.858 0 00-.581 1.5v.477h-.685v1.266h.685v4.158h1.847v-4.162h1.1V28.56h-1.1v-.472a.619.619 0 01.145-.431.616.616 0 01.477-.161 1.821 1.821 0 01.28.02 2.06 2.06 0 01.228.052v-1.36a3.526 3.526 0 00-.389-.083 3.068 3.068 0 00-.461-.03zm6.061 3.072a2.683 2.683 0 00-.94-.555 3.477 3.477 0 00-1.167-.192 3.442 3.442 0 00-1.178.2 2.676 2.676 0 00-.94.571 2.65 2.65 0 00-.633.9 2.932 2.932 0 00-.228 1.178v.083a2.891 2.891 0 00.228 1.173 2.448 2.448 0 00.633.872 2.73 2.73 0 00.94.54 3.587 3.587 0 001.167.187 3.507 3.507 0 001.167-.192 2.789 2.789 0 00.95-.556 2.6 2.6 0 00.623-.887 2.952 2.952 0 00.228-1.188v-.083a2.865 2.865 0 00-.228-1.162 2.625 2.625 0 00-.622-.889zm-1.038 2.154a1.751 1.751 0 01-.27 1.049.928.928 0 01-.8.368.938.938 0 01-.81-.368 1.786 1.786 0 01-.27-1.07v-.082a1.68 1.68 0 01.274-1.039.955.955 0 01.805-.357.929.929 0 01.8.366 1.753 1.753 0 01.27 1.05zm4.431-1.677v-1.079h-1.858v5.425h1.858v-2.573a1.014 1.014 0 01.451-.935 2.372 2.372 0 011.3-.259V28.49a1.886 1.886 0 00-1.064.265 1.885 1.885 0 00-.687.889zm10.929-.088a1.939 1.939 0 00-.363-.639 1.524 1.524 0 00-.566-.374 1.98 1.98 0 00-.711-.124 2.312 2.312 0 00-.981.213 2.127 2.127 0 00-.815.69 1.427 1.427 0 00-.566-.68 1.726 1.726 0 00-.908-.222 1.832 1.832 0 00-1.059.291 2.007 2.007 0 00-.643.685v-.831h-1.858v5.428h1.858v-3.144a.934.934 0 01.228-.68.805.805 0 01.6-.233.657.657 0 01.509.2.884.884 0 01.187.617v3.238h1.837v-3.142a.934.934 0 01.228-.68.805.805 0 01.6-.233.658.658 0 01.508.2.885.885 0 01.187.617v3.238h1.858v-3.549a2.654 2.654 0 00-.13-.886z"/><path d="M4.192 21.586L2.77 17.631H-.001v7.421h1.9v-4.618l1.8 4.618h.706l1.816-4.618v4.618h2.117v-7.421H5.61zm9.518-1.622a2.146 2.146 0 00-.773-.369 3.981 3.981 0 00-1.012-.119 4.1 4.1 0 00-1.022.119 2.361 2.361 0 00-.794.358 1.876 1.876 0 00-.545.618 2.027 2.027 0 00-.234.856h1.744a.843.843 0 01.192-.451.676.676 0 01.545-.192q.447 0 .581.234a1.255 1.255 0 01.135.627v.125h-.519a4.527 4.527 0 00-2.122.41 1.426 1.426 0 00-.763 1.364 1.67 1.67 0 00.151.743 1.385 1.385 0 00.41.5 1.626 1.626 0 00.581.291 2.555 2.555 0 00.7.094 1.994 1.994 0 001.033-.229 1.751 1.751 0 00.576-.529v.632h1.806v-3.518a2.3 2.3 0 00-.171-.929 1.616 1.616 0 00-.499-.635zm-1.183 3.186a.674.674 0 01-.265.56 1.033 1.033 0 01-.659.208.733.733 0 01-.488-.135.467.467 0 01-.156-.374.471.471 0 01.259-.462 1.94 1.94 0 01.82-.13h.488zm6.199-3.674a1.971 1.971 0 00-1.125.3 1.923 1.923 0 00-.659.726v-.879h-1.858v5.428h1.858v-3.032a1.045 1.045 0 01.254-.777.917.917 0 01.669-.248.729.729 0 01.591.222 1.055 1.055 0 01.187.689v3.147h1.858v-3.529a2.129 2.129 0 00-.493-1.541 1.716 1.716 0 00-1.282-.506zm6.124 3.269a1.064 1.064 0 01-.248.778.912.912 0 01-.675.249.711.711 0 01-.577-.229 1.043 1.043 0 01-.191-.685V19.62h-1.858v3.539a2.584 2.584 0 00.14.9 1.718 1.718 0 00.389.629 1.454 1.454 0 00.571.368 2.125 2.125 0 00.726.12 1.969 1.969 0 001.095-.27 1.808 1.808 0 00.627-.7v.84h1.858v-5.428h-1.858zm5.165-5.594a2.311 2.311 0 00-1.546.492 1.858 1.858 0 00-.581 1.5v.477h-.685v1.266h.685v4.158h1.847v-4.162h1.1v-1.266h-1.1v-.472a.617.617 0 01.146-.431.613.613 0 01.477-.161 1.812 1.812 0 01.28.02 2.1 2.1 0 01.229.052v-1.36a3.559 3.559 0 00-.39-.083 3.06 3.06 0 00-.462-.03zm5.579 2.813a2.146 2.146 0 00-.773-.369 3.981 3.981 0 00-1.012-.119 4.1 4.1 0 00-1.022.119 2.361 2.361 0 00-.794.358 1.877 1.877 0 00-.545.618 2.026 2.026 0 00-.233.856h1.744a.843.843 0 01.192-.451.676.676 0 01.545-.192q.446 0 .581.234a1.255 1.255 0 01.135.627v.125h-.519a4.527 4.527 0 00-2.122.41 1.426 1.426 0 00-.763 1.364 1.67 1.67 0 00.15.743 1.385 1.385 0 00.41.5 1.616 1.616 0 00.581.291 2.551 2.551 0 00.7.094 1.994 1.994 0 001.033-.229 1.751 1.751 0 00.576-.529v.632h1.806v-3.518a2.3 2.3 0 00-.171-.929 1.615 1.615 0 00-.499-.635zm-1.183 3.186a.674.674 0 01-.265.56 1.033 1.033 0 01-.659.208.732.732 0 01-.488-.135.467.467 0 01-.156-.374.471.471 0 01.259-.462 1.938 1.938 0 01.82-.13h.488zm6.013.435a.918.918 0 01-.644.228.937.937 0 01-.8-.358 1.776 1.776 0 01-.27-1.074v-.083a1.667 1.667 0 01.27-1.033.916.916 0 01.769-.348.825.825 0 01.607.2 1.04 1.04 0 01.264.586h1.744a2.5 2.5 0 00-.275-1.048 2.119 2.119 0 00-.6-.7 2.4 2.4 0 00-.825-.374 4.006 4.006 0 00-.96-.114 3.24 3.24 0 00-1.127.192 2.729 2.729 0 00-.918.555 2.6 2.6 0 00-.623.893 3.014 3.014 0 00-.228 1.2v.083a3.1 3.1 0 00.218 1.2 2.353 2.353 0 00.6.861 2.506 2.506 0 00.9.529 3.477 3.477 0 001.131.177 2.9 2.9 0 002-.617 2.238 2.238 0 00.726-1.645h-1.659a1.044 1.044 0 01-.3.69zm5.195.114a.545.545 0 01-.41-.145.591.591 0 01-.14-.426v-2.242h1.069v-1.267h-1.069v-1.13h-1.861v1.13h-.654v1.266h.654v2.418a1.835 1.835 0 00.493 1.417 2.029 2.029 0 001.417.451 3.108 3.108 0 00.59-.052c.173-.035.318-.07.436-.1v-1.411a1.092 1.092 0 01-.249.072 1.666 1.666 0 01-.276.019zm4.685-.954a1.064 1.064 0 01-.249.778.911.911 0 01-.675.249.71.71 0 01-.576-.229 1.043 1.043 0 01-.192-.685V19.62h-1.857v3.539a2.586 2.586 0 00.139.9 1.728 1.728 0 00.389.629 1.464 1.464 0 00.571.368 2.13 2.13 0 00.726.12 1.966 1.966 0 001.095-.27 1.8 1.8 0 00.628-.7v.84h1.858v-5.428h-1.858zm4.618-2.045v-1.079h-1.858v5.425h1.858v-2.573a1.014 1.014 0 01.451-.935 2.371 2.371 0 011.3-.259v-1.733a1.886 1.886 0 00-1.064.265 1.886 1.886 0 00-.687.889zm2.469-1.079h1.858v5.428h-1.858zm.923-2.44a1.018 1.018 0 00-.727.275.912.912 0 00-.291.691.891.891 0 00.291.684 1.025 1.025 0 00.727.27 1.043 1.043 0 00.732-.27.885.885 0 00.3-.684.905.905 0 00-.3-.691 1.036 1.036 0 00-.732-.275zm5.425 2.295a1.972 1.972 0 00-1.126.3 1.922 1.922 0 00-.659.726v-.879h-1.858v5.428h1.858v-3.032a1.048 1.048 0 01.254-.777.917.917 0 01.669-.248.731.731 0 01.592.222 1.059 1.059 0 01.187.689v3.147h1.858v-3.529a2.126 2.126 0 00-.493-1.541 1.716 1.716 0 00-1.282-.506zm6.404.145v.775a1.9 1.9 0 00-.633-.669 1.938 1.938 0 00-1.048-.25 2.234 2.234 0 00-.9.182 2.1 2.1 0 00-.732.524 2.531 2.531 0 00-.493.824 3.059 3.059 0 00-.182 1.085v.083a3.168 3.168 0 00.182 1.11 2.4 2.4 0 00.493.819 2.059 2.059 0 00.732.5 2.355 2.355 0 00.9.171 1.886 1.886 0 00.566-.083 1.838 1.838 0 00.483-.228 1.88 1.88 0 00.368-.311 1.8 1.8 0 00.265-.374v.831a1.242 1.242 0 01-.265.824 1.1 1.1 0 01-.887.317 1.032 1.032 0 01-.721-.2.939.939 0 01-.275-.5h-1.847a2.342 2.342 0 00.244.836 1.922 1.922 0 00.545.638 2.483 2.483 0 00.851.4 4.536 4.536 0 001.2.14 3.491 3.491 0 002.237-.623 2.23 2.23 0 00.773-1.847v-4.971zm.052 2.548a1.332 1.332 0 01-.291.909.994.994 0 01-.789.331.963.963 0 01-.778-.331 1.33 1.33 0 01-.28-.889v-.083a1.384 1.384 0 01.27-.894.966.966 0 01.8-.335.974.974 0 01.794.331 1.347 1.347 0 01.275.889z" fill="#4c4c4c"/><path d="M2.117 13.15h2.4v-1.515h-2.4v-1.276h3.009v-1.64H-.001v7.421h5.293V14.5H2.116zm7.587-2.584a1.972 1.972 0 00-1.126.3 1.922 1.922 0 00-.659.726v-.879H6.061v5.428h1.858v-3.032a1.048 1.048 0 01.254-.777.917.917 0 01.669-.248.731.731 0 01.592.222 1.059 1.059 0 01.187.689v3.147h1.858v-3.529a2.126 2.126 0 00-.493-1.541 1.716 1.716 0 00-1.282-.506zm6.215.92a1.889 1.889 0 00-.633-.669 1.936 1.936 0 00-1.048-.25 2.237 2.237 0 00-.9.182 2.094 2.094 0 00-.732.524 2.542 2.542 0 00-.493.824 3.06 3.06 0 00-.182 1.085v.083a3.169 3.169 0 00.182 1.11 2.406 2.406 0 00.493.819 2.057 2.057 0 00.732.5 2.357 2.357 0 00.9.171 1.886 1.886 0 00.566-.083 1.836 1.836 0 00.483-.228 1.859 1.859 0 00.368-.311 1.757 1.757 0 00.265-.374v.831a1.242 1.242 0 01-.265.824 1.1 1.1 0 01-.887.317 1.033 1.033 0 01-.721-.2.943.943 0 01-.275-.5h-1.847a2.354 2.354 0 00.243.836 1.936 1.936 0 00.545.638 2.483 2.483 0 00.851.4 4.539 4.539 0 001.2.14A3.489 3.489 0 0017 17.532a2.23 2.23 0 00.773-1.847v-4.971h-1.858zm.052 1.773a1.332 1.332 0 01-.29.909 1 1 0 01-.789.331.963.963 0 01-.778-.331 1.33 1.33 0 01-.28-.889v-.083a1.388 1.388 0 01.27-.894.967.967 0 01.8-.335.973.973 0 01.794.331 1.343 1.343 0 01.275.889zm3.667-4.987a1.018 1.018 0 00-.726.275.912.912 0 00-.291.691.891.891 0 00.291.684 1.025 1.025 0 00.726.27 1.043 1.043 0 00.732-.27.885.885 0 00.3-.684.905.905 0 00-.3-.691 1.036 1.036 0 00-.732-.275zm-.923 2.439h1.858v5.428h-1.858zm6.468-.145a1.972 1.972 0 00-1.126.3 1.922 1.922 0 00-.659.726v-.879H21.54v5.428h1.858v-3.032a1.047 1.047 0 01.254-.777.918.918 0 01.669-.248.731.731 0 01.592.222 1.059 1.059 0 01.187.689v3.147h1.858v-3.529a2.126 2.126 0 00-.493-1.541 1.716 1.716 0 00-1.282-.506zm7.2.675a2.493 2.493 0 00-.882-.509 3.338 3.338 0 00-1.059-.165 3.34 3.34 0 00-1.152.2 2.675 2.675 0 00-.934.571 2.714 2.714 0 00-.623.9 2.919 2.919 0 00-.228 1.178v.083a2.977 2.977 0 00.223 1.184 2.445 2.445 0 00.617.871 2.531 2.531 0 00.924.535 3.7 3.7 0 001.183.182 3.267 3.267 0 001.93-.5 1.989 1.989 0 00.82-1.421h-1.744a.791.791 0 01-.265.456 1.017 1.017 0 01-.68.187 1.07 1.07 0 01-.794-.3 1.271 1.271 0 01-.337-.835h3.819v-.488a3.225 3.225 0 00-.223-1.256 2.453 2.453 0 00-.595-.873zm-2.979 1.567a1.266 1.266 0 01.343-.758.961.961 0 01.7-.26.9.9 0 01.7.26 1.158 1.158 0 01.259.758zm8.966-1.567a2.485 2.485 0 00-.882-.509 3.344 3.344 0 00-1.059-.165 3.343 3.343 0 00-1.153.2 2.687 2.687 0 00-.934.571 2.724 2.724 0 00-.623.9 2.931 2.931 0 00-.228 1.178v.083a2.965 2.965 0 00.225 1.176 2.444 2.444 0 00.617.871 2.54 2.54 0 00.924.535 3.7 3.7 0 001.182.182 3.264 3.264 0 001.93-.5 1.99 1.99 0 00.82-1.421h-1.744a.792.792 0 01-.265.456 1.014 1.014 0 01-.679.187 1.072 1.072 0 01-.795-.3 1.278 1.278 0 01-.337-.835h3.82v-.488a3.214 3.214 0 00-.224-1.256 2.437 2.437 0 00-.595-.865zm-2.978 1.567a1.265 1.265 0 01.342-.758.963.963 0 01.7-.26.9.9 0 01.7.26 1.154 1.154 0 01.259.758zm6.251-1.018v-1.079h-1.857v5.425h1.857v-2.573a1.013 1.013 0 01.452-.935 2.37 2.37 0 011.3-.259v-1.733a1.888 1.888 0 00-1.064.265 1.886 1.886 0 00-.688.889zm3.386-3.518a1.018 1.018 0 00-.726.275.912.912 0 00-.291.691.891.891 0 00.291.684 1.025 1.025 0 00.726.27 1.042 1.042 0 00.732-.27.885.885 0 00.3-.684.905.905 0 00-.3-.691 1.035 1.035 0 00-.732-.275zm-.922 2.439h1.858v5.428h-1.858zm6.447-.145a1.972 1.972 0 00-1.126.3 1.928 1.928 0 00-.659.726v-.879h-1.858v5.428h1.858v-3.032a1.047 1.047 0 01.254-.777.918.918 0 01.669-.248.731.731 0 01.592.222 1.059 1.059 0 01.187.689v3.147h1.858v-3.529a2.126 2.126 0 00-.493-1.541 1.715 1.715 0 00-1.282-.506zm6.148.92a1.9 1.9 0 00-.633-.669 1.936 1.936 0 00-1.048-.25 2.236 2.236 0 00-.9.182 2.094 2.094 0 00-.732.524 2.542 2.542 0 00-.493.824 3.058 3.058 0 00-.182 1.085v.083a3.166 3.166 0 00.182 1.11 2.4 2.4 0 00.493.819 2.057 2.057 0 00.732.5 2.357 2.357 0 00.9.171 1.887 1.887 0 00.566-.083 1.835 1.835 0 00.483-.228 1.86 1.86 0 00.368-.311 1.775 1.775 0 00.265-.374v.831a1.242 1.242 0 01-.265.824 1.1 1.1 0 01-.887.317 1.033 1.033 0 01-.721-.2.943.943 0 01-.275-.5h-1.847a2.369 2.369 0 00.244.836 1.93 1.93 0 00.545.638 2.483 2.483 0 00.851.4 4.54 4.54 0 001.2.14 3.49 3.49 0 002.237-.623 2.23 2.23 0 00.773-1.847v-4.971H56.7zm.052 1.773a1.329 1.329 0 01-.291.909.993.993 0 01-.789.331.963.963 0 01-.778-.331 1.33 1.33 0 01-.28-.889v-.083a1.385 1.385 0 01.27-.894.967.967 0 01.8-.335.974.974 0 01.794.331 1.343 1.343 0 01.275.889zm10.626 1.368l1.194-2.345h-1.616l-.54 1.059-.934-1.142a2.806 2.806 0 001.115-.784 1.64 1.64 0 00.369-1.053 1.49 1.49 0 00-.187-.752 1.674 1.674 0 00-.5-.545 2.289 2.289 0 00-.716-.327 3.262 3.262 0 00-.851-.109 3.345 3.345 0 00-.924.125 2.333 2.333 0 00-.758.363 1.753 1.753 0 00-.519.613 1.811 1.811 0 00-.187.841 2.064 2.064 0 00.109.612 2.572 2.572 0 00.348.686 3.284 3.284 0 00-1.209.907 1.965 1.965 0 00-.42 1.251 2.289 2.289 0 00.186.944 1.987 1.987 0 00.53.706 2.211 2.211 0 00.815.44 3.59 3.59 0 001.073.151 3.141 3.141 0 001.188-.192 3.4 3.4 0 00.815-.473l.436.54h2.418zm-2.9.016a1.015 1.015 0 01-.4.077.913.913 0 01-.706-.259.943.943 0 01-.239-.665.772.772 0 01.146-.488 1.269 1.269 0 01.353-.311l1.173 1.411a.974.974 0 01-.327.232zm.654-3.63a1.522 1.522 0 01-.555.407 2.83 2.83 0 01-.311-.428.8.8 0 01-.114-.408.645.645 0 01.171-.475.6.6 0 01.442-.173.519.519 0 01.4.162.583.583 0 01.151.413.794.794 0 01-.184.498z" fill="#7f7f7f"/><path d="M.041.446h2.148v7.421H.041zm6.963 1.848a1.971 1.971 0 00-1.125.3 1.93 1.93 0 00-.66.726v-.879H3.362v5.428h1.857V4.837a1.045 1.045 0 01.255-.777.916.916 0 01.669-.248.729.729 0 01.591.222 1.055 1.055 0 01.187.689V7.87h1.858V4.341A2.129 2.129 0 008.286 2.8a1.717 1.717 0 00-1.282-.506zm5.363 4.224a.545.545 0 01-.41-.145.591.591 0 01-.14-.426V3.705h1.069V2.438h-1.069v-1.13H9.959v1.13h-.654v1.266h.654v2.418a1.834 1.834 0 00.493 1.417 2.029 2.029 0 001.417.451 3.108 3.108 0 00.598-.052c.173-.035.318-.07.436-.1V6.427a1.094 1.094 0 01-.249.072 1.666 1.666 0 01-.287.019zm5.846-3.549a2.494 2.494 0 00-.882-.509 3.338 3.338 0 00-1.059-.165 3.337 3.337 0 00-1.152.2 2.674 2.674 0 00-.934.571 2.7 2.7 0 00-.623.9 2.919 2.919 0 00-.228 1.178v.083a2.966 2.966 0 00.223 1.184 2.436 2.436 0 00.617.871 2.531 2.531 0 00.924.535 3.7 3.7 0 001.183.182 3.267 3.267 0 001.93-.5 1.989 1.989 0 00.82-1.421h-1.746a.794.794 0 01-.265.456 1.017 1.017 0 01-.68.187 1.07 1.07 0 01-.794-.3 1.271 1.271 0 01-.337-.835h3.819v-.488a3.226 3.226 0 00-.223-1.256 2.453 2.453 0 00-.593-.873zm-2.979 1.567a1.262 1.262 0 01.343-.758.961.961 0 01.7-.26.9.9 0 01.7.26 1.158 1.158 0 01.259.758zM19.759.052h1.847v7.815h-1.847zm2.927 0h1.847v7.815h-1.847zM26.536 0a1.018 1.018 0 00-.726.275.912.912 0 00-.291.691.891.891 0 00.291.684 1.025 1.025 0 00.726.27 1.042 1.042 0 00.732-.27.885.885 0 00.3-.684.905.905 0 00-.3-.691A1.035 1.035 0 0026.536 0zm-.924 2.439h1.858v5.428h-1.858zm6.58.775a1.9 1.9 0 00-.633-.669 1.936 1.936 0 00-1.048-.25 2.235 2.235 0 00-.9.182 2.1 2.1 0 00-.732.524 2.543 2.543 0 00-.493.824 3.058 3.058 0 00-.182 1.085v.083a3.166 3.166 0 00.182 1.11 2.406 2.406 0 00.493.819 2.059 2.059 0 00.732.5 2.355 2.355 0 00.9.171 1.887 1.887 0 00.566-.083 1.835 1.835 0 00.483-.228 1.858 1.858 0 00.368-.311 1.775 1.775 0 00.265-.374v.831a1.242 1.242 0 01-.265.824 1.1 1.1 0 01-.887.317 1.033 1.033 0 01-.721-.2.943.943 0 01-.275-.5h-1.847a2.368 2.368 0 00.244.836 1.93 1.93 0 00.545.638 2.485 2.485 0 00.851.4 4.54 4.54 0 001.2.14 3.491 3.491 0 002.237-.623 2.23 2.23 0 00.773-1.847V2.442H32.19zm.052 1.773a1.329 1.329 0 01-.291.909.993.993 0 01-.789.331.963.963 0 01-.778-.331 1.33 1.33 0 01-.28-.889v-.083a1.384 1.384 0 01.27-.894.966.966 0 01.8-.335.973.973 0 01.794.331 1.346 1.346 0 01.275.889zm7.368-2.018a2.493 2.493 0 00-.882-.509 3.338 3.338 0 00-1.059-.165 3.34 3.34 0 00-1.152.2 2.675 2.675 0 00-.934.571 2.713 2.713 0 00-.623.9 2.919 2.919 0 00-.228 1.178v.083a2.978 2.978 0 00.223 1.184 2.445 2.445 0 00.618.871 2.531 2.531 0 00.924.535 3.7 3.7 0 001.183.182 3.267 3.267 0 001.93-.5 1.989 1.989 0 00.82-1.421h-1.744a.791.791 0 01-.265.456 1.017 1.017 0 01-.68.187 1.07 1.07 0 01-.794-.3 1.271 1.271 0 01-.337-.835h3.819v-.488a3.226 3.226 0 00-.223-1.256 2.453 2.453 0 00-.596-.873zm-2.979 1.567a1.266 1.266 0 01.342-.758.961.961 0 01.7-.26.9.9 0 01.7.26 1.158 1.158 0 01.259.758zm8.117-2.242a1.972 1.972 0 00-1.126.3 1.922 1.922 0 00-.659.726v-.879h-1.858v5.428h1.858V4.837a1.047 1.047 0 01.254-.777.917.917 0 01.669-.248.731.731 0 01.592.222 1.059 1.059 0 01.187.689V7.87h1.858V4.341a2.126 2.126 0 00-.493-1.541 1.716 1.716 0 00-1.282-.506zm5.644 4.203a1.656 1.656 0 01-.28.021.543.543 0 01-.409-.145.589.589 0 01-.14-.426V3.705h1.069V2.438h-1.069v-1.13h-1.858v1.13h-.653v1.266h.653v2.418a1.835 1.835 0 00.494 1.417 2.027 2.027 0 001.417.451 3.1 3.1 0 00.591-.052c.173-.035.318-.07.437-.1V6.427a1.109 1.109 0 01-.252.07z" fill="#b2b2b2"/></svg>