<svg xmlns="http://www.w3.org/2000/svg" width="103.576" height="50"><path d="M4.01 39.278H-.001v10.543h3.008v-3.554h1.135a4.682 4.682 0 003.038-.869 3.09 3.09 0 001.061-2.536v-.06a3.309 3.309 0 00-1.031-2.6 4.706 4.706 0 00-3.2-.924zm1.357 3.6a1.269 1.269 0 01-.37 1 1.624 1.624 0 01-1.12.333h-.87v-2.654h.885a1.763 1.763 0 011.091.294 1.155 1.155 0 01.383.974zm3.908-4.159h2.624v11.104H9.275zm10.16 3.878a3.049 3.049 0 00-1.1-.524 5.656 5.656 0 00-1.438-.169 5.834 5.834 0 00-1.452.169 3.361 3.361 0 00-1.128.509 2.666 2.666 0 00-.774.877 2.879 2.879 0 00-.332 1.217h2.477a1.2 1.2 0 01.273-.641.962.962 0 01.774-.273q.634 0 .826.333a1.785 1.785 0 01.192.891v.178h-.741a6.435 6.435 0 00-3.016.582 2.026 2.026 0 00-1.084 1.938 2.373 2.373 0 00.214 1.055 1.976 1.976 0 00.582.714 2.312 2.312 0 00.826.413 3.632 3.632 0 00.988.134 2.833 2.833 0 001.467-.325 2.489 2.489 0 00.818-.751v.9h2.566v-5a3.263 3.263 0 00-.243-1.321 2.287 2.287 0 00-.695-.906zm-1.681 4.527a.957.957 0 01-.376.8 1.468 1.468 0 01-.936.295 1.041 1.041 0 01-.693-.192.664.664 0 01-.221-.531.671.671 0 01.369-.656 2.755 2.755 0 011.165-.184h.693zm7.652.781a.774.774 0 01-.582-.206.84.84 0 01-.2-.605v-3.185h1.519v-1.8h-1.519v-1.607h-2.64v1.607h-.929v1.8h.929v3.436a2.61 2.61 0 00.7 2.014 2.883 2.883 0 002.013.641 4.414 4.414 0 00.841-.074c.246-.05.453-.1.619-.147v-2.005a1.553 1.553 0 01-.354.1 2.371 2.371 0 01-.397.031zm5.206-9.304a3.282 3.282 0 00-2.2.7 2.639 2.639 0 00-.826 2.132v.677h-.973v1.8h.973v5.913h2.624V43.91h1.564v-1.8H30.21v-.677a.88.88 0 01.206-.612.875.875 0 01.678-.229 2.589 2.589 0 01.4.029 2.934 2.934 0 01.324.074v-1.932a5 5 0 00-.553-.118 4.357 4.357 0 00-.653-.044zm8.612 4.364a3.814 3.814 0 00-1.335-.788 4.939 4.939 0 00-1.658-.273 4.892 4.892 0 00-1.674.279 3.8 3.8 0 00-1.335.811 3.763 3.763 0 00-.9 1.276 4.165 4.165 0 00-.324 1.674v.118a4.107 4.107 0 00.324 1.666 3.477 3.477 0 00.9 1.24 3.878 3.878 0 001.335.767 5.1 5.1 0 001.659.265 4.981 4.981 0 001.658-.273 3.963 3.963 0 001.35-.79 3.7 3.7 0 00.885-1.261 4.2 4.2 0 00.325-1.688v-.118a4.072 4.072 0 00-.325-1.652 3.73 3.73 0 00-.885-1.253zm-1.475 3.06a2.487 2.487 0 01-.383 1.491 1.319 1.319 0 01-1.135.523 1.334 1.334 0 01-1.15-.523 2.539 2.539 0 01-.383-1.521v-.117a2.386 2.386 0 01.39-1.476 1.356 1.356 0 011.144-.507 1.32 1.32 0 011.135.521 2.491 2.491 0 01.383 1.491zm6.297-2.382v-1.534h-2.64v7.712h2.64v-3.656a1.441 1.441 0 01.641-1.328 3.37 3.37 0 011.851-.368v-2.465a2.68 2.68 0 00-1.512.376 2.679 2.679 0 00-.98 1.263zm15.527-.124a2.756 2.756 0 00-.516-.908 2.165 2.165 0 00-.8-.531 2.813 2.813 0 00-1.01-.176 3.285 3.285 0 00-1.393.3 3.023 3.023 0 00-1.158.98 2.028 2.028 0 00-.8-.966 2.452 2.452 0 00-1.29-.316 2.6 2.6 0 00-1.5.413 2.85 2.85 0 00-.914.973v-1.175h-2.64v7.712h2.64v-4.467a1.327 1.327 0 01.324-.967 1.144 1.144 0 01.855-.331.934.934 0 01.723.287 1.257 1.257 0 01.265.877v4.6h2.61v-4.467a1.327 1.327 0 01.324-.967 1.144 1.144 0 01.855-.331.936.936 0 01.723.287 1.257 1.257 0 01.265.877v4.6h2.64v-5.042a3.77 3.77 0 00-.203-1.262z"/><path d="M5.957 32.013l-2.02-5.619H0v10.544h2.7v-6.562l2.551 6.562h1l2.58-6.562v6.562h3.008V26.394H7.976zm13.523-2.3a3.048 3.048 0 00-1.1-.524 5.658 5.658 0 00-1.438-.169 5.831 5.831 0 00-1.453.169 3.355 3.355 0 00-1.128.509 2.666 2.666 0 00-.774.877 2.881 2.881 0 00-.332 1.217h2.477a1.2 1.2 0 01.273-.641.961.961 0 01.774-.273q.634 0 .826.333a1.785 1.785 0 01.192.891v.178h-.737a6.433 6.433 0 00-3.016.582A2.026 2.026 0 0012.96 34.8a2.372 2.372 0 00.214 1.055 1.967 1.967 0 00.582.714 2.312 2.312 0 00.826.413 3.633 3.633 0 00.988.134 2.834 2.834 0 001.467-.325 2.489 2.489 0 00.818-.751v.9h2.566v-5a3.264 3.264 0 00-.243-1.321 2.3 2.3 0 00-.698-.906zm-1.681 4.527a.957.957 0 01-.376.8 1.468 1.468 0 01-.936.295 1.041 1.041 0 01-.693-.192.664.664 0 01-.221-.531.67.67 0 01.369-.656 2.756 2.756 0 011.165-.184h.693zm9.097-5.22a2.8 2.8 0 00-1.6.423 2.732 2.732 0 00-.936 1.031v-1.245h-2.64v7.712h2.64v-4.312a1.484 1.484 0 01.361-1.1 1.3 1.3 0 01.951-.352 1.036 1.036 0 01.84.315 1.5 1.5 0 01.266.979v4.471h2.639v-5.013a3.025 3.025 0 00-.7-2.19 2.439 2.439 0 00-1.821-.719zm8.82 4.645a1.511 1.511 0 01-.353 1.106 1.3 1.3 0 01-.959.354 1.011 1.011 0 01-.819-.325 1.482 1.482 0 01-.272-.973v-4.6h-2.639v5.028a3.674 3.674 0 00.2 1.276 2.439 2.439 0 00.553.893 2.066 2.066 0 00.811.523 3.021 3.021 0 001.032.17 2.8 2.8 0 001.556-.383 2.57 2.57 0 00.891-.988v1.193h2.64v-7.712h-2.64zm7.438-7.948a3.283 3.283 0 00-2.2.7 2.639 2.639 0 00-.826 2.132v.677h-.973v1.8h.973v5.913h2.624v-5.913h1.564v-1.8h-1.564v-.677a.876.876 0 01.207-.612.871.871 0 01.677-.229 2.571 2.571 0 01.4.029 2.991 2.991 0 01.325.074v-1.932a5.064 5.064 0 00-.554-.118 4.35 4.35 0 00-.653-.044zm8.013 3.996a3.048 3.048 0 00-1.1-.524 5.658 5.658 0 00-1.438-.169 5.831 5.831 0 00-1.453.169 3.355 3.355 0 00-1.128.509 2.666 2.666 0 00-.774.877 2.881 2.881 0 00-.332 1.217h2.477a1.2 1.2 0 01.273-.641.961.961 0 01.774-.273q.633 0 .826.333a1.785 1.785 0 01.192.891v.178h-.737a6.433 6.433 0 00-3.016.582 2.026 2.026 0 00-1.084 1.938 2.372 2.372 0 00.214 1.055 1.968 1.968 0 00.582.714 2.3 2.3 0 00.826.413 3.628 3.628 0 00.988.134 2.834 2.834 0 001.467-.325 2.489 2.489 0 00.818-.751v.9h2.566v-5a3.264 3.264 0 00-.243-1.321 2.3 2.3 0 00-.698-.906zm-1.681 4.527a.958.958 0 01-.376.8 1.468 1.468 0 01-.936.295 1.039 1.039 0 01-.693-.192.664.664 0 01-.221-.531.67.67 0 01.369-.656 2.753 2.753 0 011.165-.184h.693zm8.659.619a1.305 1.305 0 01-.915.324 1.331 1.331 0 01-1.135-.509 2.524 2.524 0 01-.383-1.526v-.119a2.369 2.369 0 01.383-1.467 1.3 1.3 0 011.092-.494 1.172 1.172 0 01.863.288 1.478 1.478 0 01.375.832h2.477a3.551 3.551 0 00-.391-1.488 3.011 3.011 0 00-.847-.988 3.415 3.415 0 00-1.172-.532 5.692 5.692 0 00-1.364-.161 4.6 4.6 0 00-1.6.273 3.877 3.877 0 00-1.3.788 3.692 3.692 0 00-.885 1.268 4.28 4.28 0 00-.324 1.711v.118a4.411 4.411 0 00.31 1.711 3.344 3.344 0 00.855 1.223 3.562 3.562 0 001.284.752 4.943 4.943 0 001.606.252 4.125 4.125 0 002.847-.877 3.179 3.179 0 001.031-2.337h-2.374a1.483 1.483 0 01-.433.958zm7.467.162a.774.774 0 01-.582-.206.839.839 0 01-.2-.605v-3.185h1.519v-1.8H64.83v-1.607h-2.64v1.607h-.929v1.8h.929v3.436a2.607 2.607 0 00.7 2.014 2.883 2.883 0 002.013.641 4.416 4.416 0 00.841-.074c.246-.05.453-.1.619-.147V34.89a1.555 1.555 0 01-.354.1 2.37 2.37 0 01-.397.031zm6.757-1.356a1.511 1.511 0 01-.354 1.106 1.294 1.294 0 01-.959.354 1.009 1.009 0 01-.818-.325 1.483 1.483 0 01-.273-.973v-4.6h-2.639v5.028a3.675 3.675 0 00.2 1.276 2.452 2.452 0 00.553.893 2.08 2.08 0 00.811.523 3.029 3.029 0 001.032.17 2.792 2.792 0 001.556-.383 2.565 2.565 0 00.892-.988v1.193h2.64v-7.712h-2.64zm6.656-2.906v-1.534h-2.64v7.712h2.64v-3.656a1.441 1.441 0 01.641-1.328 3.37 3.37 0 011.851-.368V29.12a2.679 2.679 0 00-1.511.376 2.68 2.68 0 00-.981 1.263zm3.562-1.533h2.639v7.712h-2.639zm1.312-3.466a1.446 1.446 0 00-1.032.391 1.3 1.3 0 00-.413.982 1.266 1.266 0 00.413.972 1.456 1.456 0 001.032.383 1.482 1.482 0 001.04-.383 1.257 1.257 0 00.42-.972 1.286 1.286 0 00-.42-.982 1.472 1.472 0 00-1.04-.391zm7.94 3.26a2.8 2.8 0 00-1.6.423 2.732 2.732 0 00-.936 1.031v-1.245h-2.64v7.712h2.64v-4.312a1.488 1.488 0 01.361-1.1 1.3 1.3 0 01.951-.352 1.039 1.039 0 01.841.315 1.506 1.506 0 01.265.979v4.471h2.64v-5.013a3.021 3.021 0 00-.7-2.19 2.438 2.438 0 00-1.822-.719zm9.098.209v1.1a2.692 2.692 0 00-.9-.951 2.753 2.753 0 00-1.489-.356 3.175 3.175 0 00-1.276.258 2.979 2.979 0 00-1.04.745 3.6 3.6 0 00-.7 1.171 4.347 4.347 0 00-.258 1.542v.118a4.5 4.5 0 00.258 1.578 3.4 3.4 0 00.7 1.164 2.926 2.926 0 001.04.716 3.346 3.346 0 001.276.242 2.681 2.681 0 00.8-.118 2.608 2.608 0 00.686-.324 2.667 2.667 0 00.523-.442 2.561 2.561 0 00.376-.531v1.181a1.765 1.765 0 01-.376 1.171 1.562 1.562 0 01-1.261.45 1.467 1.467 0 01-1.025-.287 1.333 1.333 0 01-.391-.716h-2.625a3.326 3.326 0 00.352 1.189 2.731 2.731 0 00.774.907 3.529 3.529 0 001.209.567 6.445 6.445 0 001.711.2 4.959 4.959 0 003.178-.885 3.169 3.169 0 001.1-2.625v-7.064zm.074 3.62a1.893 1.893 0 01-.413 1.292 1.413 1.413 0 01-1.121.47 1.368 1.368 0 01-1.106-.47 1.89 1.89 0 01-.4-1.263v-.118a1.967 1.967 0 01.383-1.27 1.372 1.372 0 011.135-.476 1.384 1.384 0 011.128.47 1.913 1.913 0 01.391 1.263z" fill="#4c4c4c"/><path d="M3.01 18.891h3.406v-2.153H3.01v-1.814h4.276v-2.33H.002v10.544h7.521v-2.33H3.01zm10.778-3.671a2.8 2.8 0 00-1.6.423 2.732 2.732 0 00-.936 1.031v-1.245h-2.64v7.712h2.64v-4.312a1.488 1.488 0 01.361-1.1 1.3 1.3 0 01.951-.352 1.039 1.039 0 01.841.315 1.5 1.5 0 01.265.979v4.471h2.64v-5.013a3.021 3.021 0 00-.7-2.19 2.438 2.438 0 00-1.822-.719zm9.072 1.309a2.684 2.684 0 00-.9-.951 2.751 2.751 0 00-1.489-.356 3.178 3.178 0 00-1.276.258 2.977 2.977 0 00-1.04.745 3.613 3.613 0 00-.7 1.171 4.345 4.345 0 00-.258 1.542v.118a4.5 4.5 0 00.258 1.578 3.419 3.419 0 00.7 1.164 2.924 2.924 0 001.04.716 3.349 3.349 0 001.276.242 2.682 2.682 0 00.8-.118 2.609 2.609 0 00.686-.324 2.642 2.642 0 00.523-.442 2.491 2.491 0 00.376-.531v1.181a1.765 1.765 0 01-.376 1.171 1.56 1.56 0 01-1.261.45 1.468 1.468 0 01-1.025-.287 1.339 1.339 0 01-.391-.716h-2.624a3.345 3.345 0 00.346 1.188 2.752 2.752 0 00.774.907 3.529 3.529 0 001.209.567 6.448 6.448 0 001.711.2 4.958 4.958 0 003.178-.885 3.169 3.169 0 001.1-2.625v-7.063h-2.64zm.074 2.519a1.893 1.893 0 01-.412 1.292 1.415 1.415 0 01-1.122.47 1.368 1.368 0 01-1.106-.47 1.889 1.889 0 01-.4-1.263v-.118a1.972 1.972 0 01.383-1.27 1.373 1.373 0 011.135-.477 1.382 1.382 0 011.128.47 1.909 1.909 0 01.391 1.263zm5.326-7.088a1.446 1.446 0 00-1.032.391 1.3 1.3 0 00-.413.982 1.266 1.266 0 00.413.972 1.456 1.456 0 001.032.383 1.482 1.482 0 001.04-.383 1.257 1.257 0 00.42-.972 1.286 1.286 0 00-.42-.982 1.472 1.472 0 00-1.04-.391zm-1.312 3.466h2.639v7.712h-2.639zm9.267-.206a2.8 2.8 0 00-1.6.423 2.732 2.732 0 00-.936 1.031v-1.245h-2.64v7.712h2.64v-4.312a1.488 1.488 0 01.361-1.1 1.3 1.3 0 01.951-.352 1.039 1.039 0 01.841.315 1.506 1.506 0 01.265.979v4.471h2.64v-5.013a3.021 3.021 0 00-.7-2.19 2.438 2.438 0 00-1.822-.719zm10.354.958a3.541 3.541 0 00-1.253-.723 4.742 4.742 0 00-1.5-.235 4.745 4.745 0 00-1.637.279 3.8 3.8 0 00-1.327.811 3.856 3.856 0 00-.885 1.276 4.15 4.15 0 00-.324 1.674v.118a4.231 4.231 0 00.317 1.682 3.474 3.474 0 00.878 1.238 3.594 3.594 0 001.312.76 5.257 5.257 0 001.681.258 4.642 4.642 0 002.743-.709 2.827 2.827 0 001.165-2.019h-2.477a1.124 1.124 0 01-.376.648 1.445 1.445 0 01-.966.265 1.521 1.521 0 01-1.128-.42 1.806 1.806 0 01-.479-1.186h5.427v-.694a4.582 4.582 0 00-.317-1.784 3.485 3.485 0 00-.854-1.239zm-4.232 2.227a1.8 1.8 0 01.487-1.076 1.366 1.366 0 01.988-.37 1.276 1.276 0 01.988.37 1.644 1.644 0 01.369 1.076zm12.86-2.227a3.53 3.53 0 00-1.253-.723 4.751 4.751 0 00-1.5-.235 4.75 4.75 0 00-1.638.279 3.818 3.818 0 00-1.327.811 3.87 3.87 0 00-.885 1.276 4.165 4.165 0 00-.324 1.674v.118a4.213 4.213 0 00.318 1.682 3.471 3.471 0 00.876 1.238 3.607 3.607 0 001.313.76 5.252 5.252 0 001.68.258 4.638 4.638 0 002.743-.709 2.828 2.828 0 001.166-2.019h-2.477a1.125 1.125 0 01-.377.648 1.441 1.441 0 01-.965.265 1.523 1.523 0 01-1.129-.42 1.815 1.815 0 01-.479-1.186h5.427v-.694a4.566 4.566 0 00-.318-1.784 3.462 3.462 0 00-.851-1.239zm-4.231 2.227a1.8 1.8 0 01.486-1.076 1.368 1.368 0 01.989-.37 1.276 1.276 0 01.988.37 1.64 1.64 0 01.368 1.076zm8.983-1.446v-1.534H57.31v7.712h2.639v-3.656a1.44 1.44 0 01.642-1.328 3.368 3.368 0 011.851-.368V15.32a2.682 2.682 0 00-1.512.376 2.68 2.68 0 00-.981 1.263zm4.877-4.999a1.446 1.446 0 00-1.032.391 1.3 1.3 0 00-.413.982 1.266 1.266 0 00.413.972 1.457 1.457 0 001.032.383 1.481 1.481 0 001.04-.383 1.257 1.257 0 00.42-.972 1.286 1.286 0 00-.42-.982 1.47 1.47 0 00-1.04-.391zm-1.315 3.466h2.639v7.712h-2.639zm9.265-.206a2.8 2.8 0 00-1.6.423 2.738 2.738 0 00-.936 1.031v-1.245H67.6v7.712h2.64v-4.312a1.488 1.488 0 01.361-1.1 1.3 1.3 0 01.951-.352 1.039 1.039 0 01.841.315 1.5 1.5 0 01.265.979v4.471h2.64v-5.013a3.021 3.021 0 00-.7-2.19 2.436 2.436 0 00-1.822-.719zm9.063 1.309a2.692 2.692 0 00-.9-.951 2.751 2.751 0 00-1.489-.356 3.178 3.178 0 00-1.276.258 2.977 2.977 0 00-1.04.745 3.613 3.613 0 00-.7 1.171 4.345 4.345 0 00-.258 1.542v.118a4.5 4.5 0 00.258 1.578 3.419 3.419 0 00.7 1.164 2.925 2.925 0 001.04.716 3.35 3.35 0 001.276.242 2.681 2.681 0 00.8-.118 2.61 2.61 0 00.686-.324 2.643 2.643 0 00.523-.442 2.524 2.524 0 00.376-.531v1.181a1.765 1.765 0 01-.376 1.171 1.562 1.562 0 01-1.261.45 1.468 1.468 0 01-1.025-.287 1.339 1.339 0 01-.391-.716h-2.625a3.365 3.365 0 00.346 1.188 2.743 2.743 0 00.774.907 3.529 3.529 0 001.209.567 6.449 6.449 0 001.711.2 4.96 4.96 0 003.178-.885 3.169 3.169 0 001.1-2.625v-7.063h-2.64zm.074 2.519a1.889 1.889 0 01-.413 1.292 1.412 1.412 0 01-1.121.47 1.368 1.368 0 01-1.106-.47 1.89 1.89 0 01-.4-1.263v-.118a1.967 1.967 0 01.383-1.27 1.373 1.373 0 011.135-.477 1.383 1.383 0 011.128.47 1.908 1.908 0 01.391 1.263zm15.1 1.936l1.7-3.333h-2.3l-.767 1.5-1.327-1.622a3.986 3.986 0 001.584-1.113 2.331 2.331 0 00.524-1.5 2.117 2.117 0 00-.266-1.069 2.378 2.378 0 00-.708-.774 3.251 3.251 0 00-1.017-.464 4.633 4.633 0 00-1.209-.155 4.751 4.751 0 00-1.312.178 3.314 3.314 0 00-1.077.515 2.492 2.492 0 00-.737.871 2.574 2.574 0 00-.266 1.194 2.932 2.932 0 00.155.869 3.656 3.656 0 00.495.974 4.668 4.668 0 00-1.718 1.289 2.793 2.793 0 00-.6 1.778 3.253 3.253 0 00.264 1.342 2.823 2.823 0 00.753 1 3.14 3.14 0 001.158.626 5.1 5.1 0 001.525.215 4.463 4.463 0 001.688-.273 4.828 4.828 0 001.159-.672l.619.767h3.436zm-4.121.023a1.444 1.444 0 01-.568.11 1.3 1.3 0 01-1-.368 1.34 1.34 0 01-.34-.945 1.1 1.1 0 01.207-.693 1.8 1.8 0 01.5-.441l1.666 2.005a1.384 1.384 0 01-.465.332zm.929-5.158a2.163 2.163 0 01-.789.579 4.028 4.028 0 01-.442-.608 1.141 1.141 0 01-.162-.58.917.917 0 01.242-.677.846.846 0 01.628-.246.737.737 0 01.567.23.829.829 0 01.215.587 1.128 1.128 0 01-.259.715z" fill="#7f7f7f"/><path d="M.059.634h3.052v10.544H.059zM9.953 3.26a2.8 2.8 0 00-1.6.423 2.742 2.742 0 00-.937 1.031V3.469H4.777v7.712h2.639V6.869a1.484 1.484 0 01.362-1.1 1.3 1.3 0 01.951-.352 1.036 1.036 0 01.84.315 1.5 1.5 0 01.266.979v4.471h2.64V6.169a3.025 3.025 0 00-.7-2.19 2.439 2.439 0 00-1.822-.719zm7.624 6.001a.774.774 0 01-.583-.206.84.84 0 01-.2-.605V5.265h1.519v-1.8h-1.519V1.858h-2.639v1.607h-.929v1.8h.929v3.436a2.606 2.606 0 00.7 2.014 2.883 2.883 0 002.013.641 4.412 4.412 0 00.84-.074c.246-.05.453-.1.619-.147V9.13a1.552 1.552 0 01-.354.1 2.368 2.368 0 01-.396.031zm8.302-5.043a3.543 3.543 0 00-1.253-.723 4.743 4.743 0 00-1.5-.235 4.741 4.741 0 00-1.637.279 3.8 3.8 0 00-1.327.811 3.842 3.842 0 00-.885 1.276 4.148 4.148 0 00-.324 1.674v.118A4.213 4.213 0 0019.27 9.1a3.462 3.462 0 00.877 1.238 3.6 3.6 0 001.312.76 5.258 5.258 0 001.681.258 4.642 4.642 0 002.743-.709 2.827 2.827 0 001.165-2.019h-2.477a1.129 1.129 0 01-.376.648 1.445 1.445 0 01-.966.265 1.521 1.521 0 01-1.128-.42 1.806 1.806 0 01-.479-1.186h5.427v-.694a4.582 4.582 0 00-.317-1.784 3.484 3.484 0 00-.853-1.239zm-4.232 2.227a1.793 1.793 0 01.487-1.076 1.366 1.366 0 01.988-.37 1.277 1.277 0 01.988.37 1.645 1.645 0 01.369 1.076zM28.076.074H30.7v11.104h-2.624zm4.158 0h2.624v11.104h-2.624zM37.704 0a1.446 1.446 0 00-1.032.391 1.3 1.3 0 00-.413.982 1.266 1.266 0 00.413.972 1.456 1.456 0 001.032.383 1.481 1.481 0 001.04-.383 1.257 1.257 0 00.42-.972 1.286 1.286 0 00-.42-.982A1.47 1.47 0 0037.704 0zm-1.312 3.466h2.639v7.712h-2.639zm9.349 1.103a2.693 2.693 0 00-.9-.951 2.751 2.751 0 00-1.489-.356 3.175 3.175 0 00-1.275.258 2.978 2.978 0 00-1.04.745 3.613 3.613 0 00-.7 1.171 4.345 4.345 0 00-.258 1.542v.118a4.5 4.5 0 00.258 1.578 3.419 3.419 0 00.7 1.164 2.925 2.925 0 001.04.716 3.346 3.346 0 001.275.242 2.68 2.68 0 00.8-.118 2.609 2.609 0 00.686-.324 2.641 2.641 0 00.523-.442 2.528 2.528 0 00.376-.531v1.181a1.765 1.765 0 01-.376 1.171 1.562 1.562 0 01-1.261.45 1.468 1.468 0 01-1.025-.287 1.339 1.339 0 01-.391-.716h-2.625a3.364 3.364 0 00.347 1.188 2.742 2.742 0 00.774.907 3.529 3.529 0 001.209.567 6.449 6.449 0 001.711.2 4.959 4.959 0 003.178-.885 3.169 3.169 0 001.1-2.625V3.469h-2.639zm.074 2.519a1.889 1.889 0 01-.413 1.292 1.412 1.412 0 01-1.121.47 1.368 1.368 0 01-1.106-.47 1.89 1.89 0 01-.4-1.263v-.118a1.967 1.967 0 01.383-1.27 1.373 1.373 0 011.135-.477 1.383 1.383 0 011.128.47 1.914 1.914 0 01.391 1.263zm10.469-2.87a3.541 3.541 0 00-1.253-.723 4.742 4.742 0 00-1.5-.235 4.744 4.744 0 00-1.637.279 3.8 3.8 0 00-1.327.811 3.857 3.857 0 00-.885 1.276 4.148 4.148 0 00-.324 1.674v.118a4.23 4.23 0 00.317 1.682 3.475 3.475 0 00.877 1.238 3.6 3.6 0 001.312.76 5.258 5.258 0 001.681.258 4.642 4.642 0 002.743-.709 2.827 2.827 0 001.165-2.019h-2.477a1.124 1.124 0 01-.376.648 1.446 1.446 0 01-.966.265 1.521 1.521 0 01-1.128-.42 1.806 1.806 0 01-.479-1.186h5.427v-.694a4.583 4.583 0 00-.317-1.784 3.486 3.486 0 00-.853-1.239zm-4.232 2.227a1.8 1.8 0 01.487-1.076 1.366 1.366 0 01.988-.37 1.276 1.276 0 01.988.37 1.645 1.645 0 01.369 1.076zM63.584 3.26a2.8 2.8 0 00-1.6.423 2.732 2.732 0 00-.936 1.031V3.469h-2.64v7.712h2.64V6.869a1.488 1.488 0 01.361-1.1 1.3 1.3 0 01.951-.352 1.039 1.039 0 01.841.315 1.505 1.505 0 01.265.979v4.471h2.64V6.169a3.021 3.021 0 00-.7-2.19 2.438 2.438 0 00-1.822-.719zm8.02 5.971a2.353 2.353 0 01-.4.03.772.772 0 01-.582-.206.836.836 0 01-.2-.605V5.265h1.519v-1.8h-1.516V1.858h-2.641v1.607h-.928v1.8h.928v3.436a2.607 2.607 0 00.7 2.014 2.88 2.88 0 002.013.641 4.4 4.4 0 00.84-.074c.246-.05.453-.1.62-.147V9.13a1.574 1.574 0 01-.353.101z" fill="#b2b2b2"/></svg>