<svg data-name="Group 97924" xmlns="http://www.w3.org/2000/svg" width="25.003" height="33.337"><defs><clipPath id="a"><path data-name="Path 194444" d="M24.262-40.125c0 .724-.259 1.73-1.294 1.73-1.249 0-1.249-1.386-1.249-1.677s0-1.774 1.285-1.774c1.169 0 1.258 1.28 1.258 1.721zM21.728-44h-.838v5.341l-.018.794h.812l.018-.671a1.428 1.428 0 00.437.45 1.783 1.783 0 001 .282 1.928 1.928 0 001.579-.759 2.544 2.544 0 00.428-1.624 2.31 2.31 0 00-.526-1.668 1.85 1.85 0 00-1.428-.565 1.5 1.5 0 00-1.463.759V-44z" transform="translate(-20.872 44)" fill="none"/></clipPath><clipPath id="b"><path data-name="Path 194446" d="M28.2-39.528c0-.409 0-1.862 1.336-1.862.988 0 1.229.854 1.229 1.68a2.6 2.6 0 01-.365 1.426 1.131 1.131 0 01-.944.445c-1.171.009-1.256-1.126-1.256-1.689zm-.81 3.914h.828v-2.27a1.537 1.537 0 001.371.681c1.068 0 2.039-.745 2.039-2.452s-.917-2.37-1.879-2.37a1.748 1.748 0 00-1.532.826l-.018-.754h-.846c.018.436.027.545.027.745v5.594z" transform="translate(-27.359 42.026)" fill="none"/></clipPath><clipPath id="c"><path data-name="Path 194448" d="M17.8-30.525a17.179 17.179 0 00-1.71-3.039 17.886 17.886 0 00-1.71 3.039 11.6 11.6 0 011.71 2.3 11.112 11.112 0 011.71-2.3z" transform="translate(-14.385 33.564)" fill="none" clip-rule="evenodd"/></clipPath><clipPath id="d"><path data-name="Path 194450" d="M14.385-4.748a17.178 17.178 0 001.71 3.039A18.542 18.542 0 0017.8-4.748a11.956 11.956 0 01-1.71-2.3 11.956 11.956 0 01-1.71 2.3z" transform="translate(-14.385 7.051)" fill="none" clip-rule="evenodd"/></clipPath><clipPath id="e"><path data-name="Path 194452" d="M13.359-30.382a18.686 18.686 0 00-2.659-2.336 18.073 18.073 0 00-.549 3.509 11.681 11.681 0 012.4 1.62 11.634 11.634 0 01.806-2.793z" transform="translate(-10.154 32.718)" fill="none" clip-rule="evenodd"/></clipPath><clipPath id="f"><path data-name="Path 194454" d="M18.615-4.823a18.2 18.2 0 002.656 2.336A18.2 18.2 0 0021.821-6a12.055 12.055 0 01-2.4-1.62 12.183 12.183 0 01-.806 2.797z" transform="translate(-18.615 7.615)" fill="none" clip-rule="evenodd"/></clipPath><clipPath id="g"><path data-name="Path 194456" d="M9.159-28.316a16.86 16.86 0 00-3.236-1.3 19.369 19.369 0 00.663 3.569 10.986 10.986 0 012.756.7 12.906 12.906 0 01-.183-2.974z" transform="translate(-5.923 29.615)" fill="none" clip-rule="evenodd"/></clipPath><clipPath id="h"><path data-name="Path 194458" d="M22.747-6.613a16.881 16.881 0 003.236 1.3 19.291 19.291 0 00-.663-3.562 11.042 11.042 0 01-2.756-.712 12.051 12.051 0 01.183 2.977z" transform="translate(-22.564 9.59)" fill="none" clip-rule="evenodd"/></clipPath><clipPath id="i"><path data-name="Path 194460" d="M6.676-22.695a11.341 11.341 0 01-1.166-2.572 18.447 18.447 0 00-3.535-.06 18.1 18.1 0 001.816 2.934 11.913 11.913 0 012.885-.3z" transform="translate(-1.974 25.385)" fill="none" clip-rule="evenodd"/></clipPath><clipPath id="j"><path data-name="Path 194462" d="M24.821-12.078a12.114 12.114 0 011.166 2.748 17.273 17.273 0 003.535.065A19.513 19.513 0 0027.7-12.41a11.016 11.016 0 01-2.876.332z" transform="translate(-24.821 12.41)" fill="none" clip-rule="evenodd"/></clipPath><clipPath id="k"><path data-name="Path 194464" d="M3.333-21.436A18.372 18.372 0 000-20.272a18.317 18.317 0 002.747 2.255 11.51 11.51 0 012.6-1.3 12.071 12.071 0 01-2.009-2.12z" transform="translate(0 21.436)" fill="none" clip-rule="evenodd"/></clipPath><clipPath id="l"><path data-name="Path 194466" d="M28.549-16.923a11.537 11.537 0 01-2.6 1.3 11.7 11.7 0 012 2.12 17.906 17.906 0 003.339-1.164 17.665 17.665 0 00-2.742-2.255z" transform="translate(-25.949 16.923)" fill="none" clip-rule="evenodd"/></clipPath><clipPath id="m"><path data-name="Path 194468" d="M5.342-15.624a11.51 11.51 0 01-2.6-1.3A18.318 18.318 0 000-14.668 17.681 17.681 0 003.333-13.5a12.393 12.393 0 012.009-2.12z" transform="translate(0 16.923)" fill="none" clip-rule="evenodd"/></clipPath><clipPath id="n"><path data-name="Path 194470" d="M25.949-19.316a11.7 11.7 0 012.6 1.3 18.317 18.317 0 002.747-2.255 17.681 17.681 0 00-3.333-1.164 12.071 12.071 0 01-2.009 2.12z" transform="translate(-25.949 21.436)" fill="none" clip-rule="evenodd"/></clipPath><clipPath id="o"><path data-name="Path 194472" d="M3.791-12.41a18.264 18.264 0 00-1.817 3.147 17.973 17.973 0 003.535-.065 12.553 12.553 0 011.166-2.751 12.031 12.031 0 01-2.885-.332z" transform="translate(-1.974 12.41)" fill="none" clip-rule="evenodd"/></clipPath><clipPath id="p"><path data-name="Path 194474" d="M27.7-22.179a19.148 19.148 0 001.825-3.148 17.975 17.975 0 00-3.535.065 12.553 12.553 0 01-1.166 2.751 11.51 11.51 0 012.876.332z" transform="translate(-24.821 25.385)" fill="none" clip-rule="evenodd"/></clipPath><clipPath id="q"><path data-name="Path 194476" d="M9.342-9.59a11.452 11.452 0 01-2.756.712 19.29 19.29 0 00-.663 3.562 16.881 16.881 0 003.236-1.3 12.959 12.959 0 01.183-2.974z" transform="translate(-5.923 9.59)" fill="none" clip-rule="evenodd"/></clipPath><clipPath id="r"><path data-name="Path 194478" d="M22.564-25.341a10.986 10.986 0 012.756-.7 19.369 19.369 0 00.663-3.569 16.86 16.86 0 00-3.236 1.3 12.029 12.029 0 01-.183 2.974z" transform="translate(-22.564 29.615)" fill="none" clip-rule="evenodd"/></clipPath><clipPath id="s"><path data-name="Path 194480" d="M10.154-5.989a18.013 18.013 0 00.549 3.5 18.1 18.1 0 002.656-2.332 11.67 11.67 0 01-.806-2.8 11.739 11.739 0 01-2.4 1.626z" transform="translate(-10.154 7.615)" fill="none" clip-rule="evenodd"/></clipPath><clipPath id="t"><path data-name="Path 194482" d="M21.821-29.209a18.073 18.073 0 00-.549-3.509 18.105 18.105 0 00-2.656 2.336 12.183 12.183 0 01.806 2.793 12.314 12.314 0 012.4-1.62z" transform="translate(-18.615 32.718)" fill="none" clip-rule="evenodd"/></clipPath><clipPath id="u"><path data-name="Path 194484" d="M14.788-24.914a8.359 8.359 0 01.819-2.382 11.667 11.667 0 00-1.6-2.32 12.067 12.067 0 00-.753 2.752 8.031 8.031 0 011.534 1.95z" transform="translate(-13.256 29.615)" fill="none" clip-rule="evenodd"/></clipPath><clipPath id="v"><path data-name="Path 194486" d="M17.178-10.436a8.453 8.453 0 01-.819 2.382 11.332 11.332 0 001.6 2.32A12.452 12.452 0 0018.71-8.5a7.818 7.818 0 01-1.532-1.936z" transform="translate(-16.359 10.436)" fill="none" clip-rule="evenodd"/></clipPath><clipPath id="w"><path data-name="Path 194488" d="M10.076-24.955a7.813 7.813 0 012.147 1.306 8.9 8.9 0 010-2.621 11.479 11.479 0 00-2.336-1.653 13.529 13.529 0 00.189 2.968z" transform="translate(-9.872 27.923)" fill="none" clip-rule="evenodd"/></clipPath><clipPath id="x"><path data-name="Path 194490" d="M21.891-9.976a7.779 7.779 0 01-2.139-1.306 8.646 8.646 0 01-.009 2.621 11.437 11.437 0 002.328 1.653 12.187 12.187 0 00-.18-2.968z" transform="translate(-19.744 11.282)" fill="none" clip-rule="evenodd"/></clipPath><clipPath id="y"><path data-name="Path 194492" d="M10.4-22.111a7.8 7.8 0 01-.86-2.328 11.664 11.664 0 00-2.771-.661 11.4 11.4 0 001.15 2.569 8.031 8.031 0 012.481.42z" transform="translate(-6.769 25.103)" fill="none" clip-rule="evenodd"/></clipPath><clipPath id="z"><path data-name="Path 194494" d="M21.436-12.41a8.7 8.7 0 01.86 2.487 11.5 11.5 0 002.773.718 12.611 12.611 0 00-1.15-2.745 8.192 8.192 0 01-2.483-.46z" transform="translate(-21.436 12.41)" fill="none" clip-rule="evenodd"/></clipPath><clipPath id="A"><path data-name="Path 194496" d="M6.5-19.367A8.186 8.186 0 019-19.8a7.781 7.781 0 01-1.625-1.914 12.073 12.073 0 00-2.862.3A11.425 11.425 0 006.5-19.367z" transform="translate(-4.513 21.718)" fill="none" clip-rule="evenodd"/></clipPath><clipPath id="B"><path data-name="Path 194498" d="M25.064-15.231a8.187 8.187 0 01-2.5.435 7.78 7.78 0 011.625 1.914 11.584 11.584 0 002.862-.313 11.992 11.992 0 00-1.987-2.036z" transform="translate(-22.564 15.231)" fill="none" clip-rule="evenodd"/></clipPath><clipPath id="C"><path data-name="Path 194500" d="M8.368-17.333a7.759 7.759 0 01-2.159-1.282 11.239 11.239 0 00-2.542 1.282 11.239 11.239 0 002.542 1.282 7.98 7.98 0 012.159-1.282z" transform="translate(-3.667 18.615)" fill="none" clip-rule="evenodd"/></clipPath><clipPath id="D"><path data-name="Path 194502" d="M23.128-17.333a7.917 7.917 0 012.164 1.282 11.4 11.4 0 002.538-1.282 11.21 11.21 0 00-2.538-1.282 7.58 7.58 0 01-2.164 1.282z" transform="translate(-23.128 18.615)" fill="none" clip-rule="evenodd"/></clipPath><clipPath id="E"><path data-name="Path 194504" d="M7.375-12.881A7.977 7.977 0 019-14.8a8.186 8.186 0 01-2.5-.435 11.425 11.425 0 00-1.988 2.045 12.073 12.073 0 002.862.3z" transform="translate(-4.513 15.231)" fill="none" clip-rule="evenodd"/></clipPath><clipPath id="F"><path data-name="Path 194506" d="M24.19-21.716a7.974 7.974 0 01-1.626 1.916 8.189 8.189 0 012.5.435 11.423 11.423 0 001.988-2.044 11.6 11.6 0 00-2.862-.3z" transform="translate(-22.564 21.718)" fill="none" clip-rule="evenodd"/></clipPath><clipPath id="G"><path data-name="Path 194508" d="M10.4-12.41a8.031 8.031 0 01-2.483.422 11.4 11.4 0 00-1.15 2.569 11.7 11.7 0 002.773-.673 7.838 7.838 0 01.86-2.318z" transform="translate(-6.769 12.41)" fill="none" clip-rule="evenodd"/></clipPath><clipPath id="H"><path data-name="Path 194510" d="M21.436-22.111a8.031 8.031 0 012.483-.422 11.024 11.024 0 001.15-2.569 11.664 11.664 0 00-2.773.664 7.567 7.567 0 01-.86 2.328z" transform="translate(-21.436 25.103)" fill="none" clip-rule="evenodd"/></clipPath><clipPath id="I"><path data-name="Path 194512" d="M14.788-10.436A7.818 7.818 0 0113.256-8.5a12.143 12.143 0 00.753 2.761 11.667 11.667 0 001.6-2.32 8.722 8.722 0 01-.821-2.377z" transform="translate(-13.256 10.436)" fill="none" clip-rule="evenodd"/></clipPath><clipPath id="J"><path data-name="Path 194514" d="M12.214-11.282a7.663 7.663 0 01-2.141 1.306 12.591 12.591 0 00-.181 2.968 11.689 11.689 0 002.33-1.653 8.637 8.637 0 01-.009-2.621z" transform="translate(-9.872 11.282)" fill="none" clip-rule="evenodd"/></clipPath><clipPath id="K"><path data-name="Path 194516" d="M17.178-24.914a8.026 8.026 0 011.531-1.944 11.984 11.984 0 00-.753-2.757 12.049 12.049 0 00-1.6 2.324 8.235 8.235 0 01.819 2.377z" transform="translate(-16.359 29.615)" fill="none" clip-rule="evenodd"/></clipPath><clipPath id="L"><path data-name="Path 194518" d="M19.752-23.649a7.542 7.542 0 012.141-1.306 12.591 12.591 0 00.181-2.968 11.689 11.689 0 00-2.33 1.653 8.637 8.637 0 01.008 2.621z" transform="translate(-19.744 27.923)" fill="none" clip-rule="evenodd"/></clipPath><clipPath id="M"><path data-name="Path 194520" d="M14.02-20.858a6.641 6.641 0 00-1.642-1.947 6.933 6.933 0 00.874 2.385 6.886 6.886 0 00-2.206-1.272 6.909 6.909 0 001.642 1.947 6.846 6.846 0 00-2.515-.447 6.818 6.818 0 002.215 1.263 6.824 6.824 0 00-2.515.438 7.079 7.079 0 002.515.438 6.818 6.818 0 00-2.215 1.263 6.846 6.846 0 002.515-.447 6.79 6.79 0 00-1.642 1.947 6.957 6.957 0 002.206-1.272 6.756 6.756 0 00-.874 2.385 7.021 7.021 0 001.642-1.947 6.838 6.838 0 000 2.543 6.883 6.883 0 00.874-2.385 6.818 6.818 0 00.874 2.385 6.838 6.838 0 000-2.543 6.9 6.9 0 001.642 1.947 6.779 6.779 0 00-.883-2.385 6.923 6.923 0 002.215 1.272 6.79 6.79 0 00-1.642-1.947 6.846 6.846 0 002.515.447 7 7 0 00-2.215-1.271 6.824 6.824 0 002.515-.438 7.044 7.044 0 00-2.515-.438 6.818 6.818 0 002.216-1.263 6.846 6.846 0 00-2.515.447 6.826 6.826 0 001.65-1.947 6.923 6.923 0 00-2.215 1.272 6.779 6.779 0 00.883-2.385 7.021 7.021 0 00-1.642 1.947 6.839 6.839 0 000-2.543 6.818 6.818 0 00-.874 2.385 6.818 6.818 0 00-.874-2.385 6.7 6.7 0 00-.009 2.552z" transform="translate(-9.872 23.41)" fill="none" clip-rule="evenodd"/></clipPath><clipPath id="N"><path data-name="Path 194522" d="M14.684-21.461a6.987 6.987 0 010-2.552 7.877 7.877 0 00-1.609-1.936 7.937 7.937 0 000 2.525 7.057 7.057 0 011.609 1.963z" transform="translate(-12.974 25.949)" fill="none" clip-rule="evenodd"/></clipPath><clipPath id="O"><path data-name="Path 194524" d="M17.487-13.538a6.992 6.992 0 010 2.552 8.071 8.071 0 001.607 1.936 8.2 8.2 0 00.009-2.525 6.931 6.931 0 01-1.616-1.962z" transform="translate(-17.487 13.538)" fill="none" clip-rule="evenodd"/></clipPath><clipPath id="P"><path data-name="Path 194526" d="M12.447-23a8.436 8.436 0 00-2.294-1.252 7.526 7.526 0 00.9 2.364 7.176 7.176 0 012.3 1.269A6.671 6.671 0 0112.447-23z" transform="translate(-10.154 24.256)" fill="none" clip-rule="evenodd"/></clipPath><clipPath id="Q"><path data-name="Path 194528" d="M19.252-12a8.272 8.272 0 002.287 1.252 7.539 7.539 0 00-.9-2.364 7.463 7.463 0 01-2.305-1.269A6.375 6.375 0 0119.252-12z" transform="translate(-18.333 14.385)" fill="none" clip-rule="evenodd"/></clipPath><clipPath id="R"><path data-name="Path 194530" d="M12.171-19.367a6.8 6.8 0 01-1.7-1.926 8.584 8.584 0 00-2.571-.425 8.028 8.028 0 001.674 1.908 7.379 7.379 0 012.6.442z" transform="translate(-7.897 21.718)" fill="none" clip-rule="evenodd"/></clipPath><clipPath id="S"><path data-name="Path 194532" d="M19.462-15.231a6.8 6.8 0 011.7 1.926 8.584 8.584 0 002.579.425 8.028 8.028 0 00-1.677-1.908 7.345 7.345 0 01-2.602-.443z" transform="translate(-19.462 15.231)" fill="none" clip-rule="evenodd"/></clipPath><clipPath id="T"><path data-name="Path 194534" d="M11.753-17.911a6.788 6.788 0 01-2.21-1.269 8.042 8.042 0 00-2.492.441 8.01 8.01 0 002.184 1.269 6.728 6.728 0 012.518-.441z" transform="translate(-7.051 19.179)" fill="none" clip-rule="evenodd"/></clipPath><clipPath id="U"><path data-name="Path 194536" d="M19.744-16.491a6.967 6.967 0 012.21 1.278 8.042 8.042 0 002.492-.441 7.935 7.935 0 00-2.192-1.269 6.761 6.761 0 01-2.51.432z" transform="translate(-19.744 16.923)" fill="none" clip-rule="evenodd"/></clipPath><clipPath id="V"><path data-name="Path 194538" d="M9.235-16.923a7.884 7.884 0 00-2.183 1.269 8.042 8.042 0 002.492.441 6.788 6.788 0 012.21-1.269 6.665 6.665 0 01-2.518-.441z" transform="translate(-7.051 16.923)" fill="none" clip-rule="evenodd"/></clipPath><clipPath id="W"><path data-name="Path 194540" d="M22.253-17.47a8.063 8.063 0 002.192-1.269 8.042 8.042 0 00-2.492-.441 6.788 6.788 0 01-2.21 1.269 6.95 6.95 0 012.51.441z" transform="translate(-19.744 19.179)" fill="none" clip-rule="evenodd"/></clipPath><clipPath id="X"><path data-name="Path 194542" d="M12.171-15.231a7.345 7.345 0 01-2.6.442A7.831 7.831 0 007.9-12.88a8.862 8.862 0 002.579-.425 6.527 6.527 0 011.7-1.926z" transform="translate(-7.897 15.231)" fill="none" clip-rule="evenodd"/></clipPath><clipPath id="Y"><path data-name="Path 194544" d="M19.462-19.367a7.345 7.345 0 012.6-.442 7.831 7.831 0 001.677-1.908 8.863 8.863 0 00-2.579.425 6.8 6.8 0 01-1.7 1.926z" transform="translate(-19.462 21.718)" fill="none" clip-rule="evenodd"/></clipPath><clipPath id="Z"><path data-name="Path 194546" d="M15.231-11.179a8 8 0 00.855 2.342 8.156 8.156 0 00.855-2.342 6.856 6.856 0 01-.855-2.359 6.684 6.684 0 01-.855 2.359z" transform="translate(-15.231 13.538)" fill="none" clip-rule="evenodd"/></clipPath><clipPath id="aa"><path data-name="Path 194548" d="M14.684-13.538a6.755 6.755 0 01-1.612 1.957 8.256 8.256 0 000 2.53 8.079 8.079 0 001.6-1.94 7.193 7.193 0 01.009-2.548z" transform="translate(-12.974 13.538)" fill="none" clip-rule="evenodd"/></clipPath><clipPath id="ab"><path data-name="Path 194550" d="M11.057-13.115a7.757 7.757 0 00-.9 2.364A8.573 8.573 0 0012.447-12a6.733 6.733 0 01.912-2.381 7.347 7.347 0 01-2.302 1.266z" transform="translate(-10.154 14.385)" fill="none" clip-rule="evenodd"/></clipPath><clipPath id="ac"><path data-name="Path 194552" d="M16.94-24.171a7.908 7.908 0 00-.855-2.342 8.063 8.063 0 00-.855 2.342 6.792 6.792 0 01.855 2.359 6.792 6.792 0 01.855-2.359z" transform="translate(-15.231 26.513)" fill="none" clip-rule="evenodd"/></clipPath><clipPath id="ad"><path data-name="Path 194554" d="M17.487-21.461a6.777 6.777 0 011.613-1.957 7.984 7.984 0 00-.009-2.53 8.08 8.08 0 00-1.6 1.94 6.621 6.621 0 01-.004 2.547z" transform="translate(-17.487 25.949)" fill="none" clip-rule="evenodd"/></clipPath><clipPath id="ae"><path data-name="Path 194556" d="M20.639-21.893a7.771 7.771 0 00.9-2.364A8.541 8.541 0 0019.252-23a6.6 6.6 0 01-.918 2.381 7.463 7.463 0 012.305-1.274z" transform="translate(-18.333 24.256)" fill="none" clip-rule="evenodd"/></clipPath></defs><g data-name="Group 97867" transform="translate(15.814)" clip-path="url(#a)"><path data-name="Path 194443" d="M-3.788-3.788h11.85V9.986h-11.85z" fill="#090"/></g><g data-name="Group 97868" transform="translate(20.729 1.496)" clip-path="url(#b)"><path data-name="Path 194445" d="M-3.788-3.789H8.063v13.988H-3.788z" fill="#090"/></g><g data-name="Group 97869" transform="translate(10.899 7.907)" clip-path="url(#c)"><path data-name="Path 194447" d="M-3.788-3.788h11V9.131h-11z" fill="#090"/></g><g data-name="Group 97870" transform="translate(10.899 27.995)" clip-path="url(#d)"><path data-name="Path 194449" d="M-3.788-3.788h11V9.131h-11z" fill="#090"/></g><g data-name="Group 97871" transform="translate(7.693 8.548)" clip-path="url(#e)"><path data-name="Path 194451" d="M-3.788-3.788H6.994V8.917H-3.788z" fill="#090"/></g><g data-name="Group 97872" transform="translate(14.104 27.567)" clip-path="url(#f)"><path data-name="Path 194453" d="M-3.789-3.788H6.996V8.917H-3.789z" fill="#090"/></g><g data-name="Group 97873" transform="translate(4.488 10.899)" clip-path="url(#g)"><path data-name="Path 194455" d="M-3.788-3.788h11V8.063h-11z" fill="#090"/></g><g data-name="Group 97874" transform="translate(17.096 26.071)" clip-path="url(#h)"><path data-name="Path 194457" d="M-3.788-3.789h11V8.062h-11z" fill="#090"/></g><g data-name="Group 97875" transform="translate(1.496 14.104)" clip-path="url(#i)"><path data-name="Path 194459" d="M-3.789-3.789H8.489V6.779H-3.789z" fill="#090"/></g><g data-name="Group 97876" transform="translate(18.806 23.934)" clip-path="url(#j)"><path data-name="Path 194461" d="M-3.788-3.788H8.491V6.994H-3.788z" fill="#090"/></g><g data-name="Group 97877" transform="translate(0 17.096)" clip-path="url(#k)"><path data-name="Path 194463" d="M-3.788-3.788H9.131v11H-3.788z" fill="#090"/></g><g data-name="Group 97878" transform="translate(19.66 20.515)" clip-path="url(#l)"><path data-name="Path 194465" d="M-3.788-3.788H9.131v11H-3.788z" fill="#090"/></g><g data-name="Group 97879" transform="translate(0 20.515)" clip-path="url(#m)"><path data-name="Path 194467" d="M-3.788-3.788H9.131v11H-3.788z" fill="#090"/></g><g data-name="Group 97880" transform="translate(19.66 17.096)" clip-path="url(#n)"><path data-name="Path 194469" d="M-3.788-3.788H9.131v11H-3.788z" fill="#090"/></g><g data-name="Group 97881" transform="translate(1.496 23.934)" clip-path="url(#o)"><path data-name="Path 194471" d="M-3.789-3.788H8.489V6.994H-3.789z" fill="#090"/></g><g data-name="Group 97882" transform="translate(18.806 14.104)" clip-path="url(#p)"><path data-name="Path 194473" d="M-3.788-3.789H8.491V6.996H-3.788z" fill="#090"/></g><g data-name="Group 97883" transform="translate(4.488 26.071)" clip-path="url(#q)"><path data-name="Path 194475" d="M-3.788-3.789h11V8.062h-11z" fill="#090"/></g><g data-name="Group 97884" transform="translate(17.096 10.899)" clip-path="url(#r)"><path data-name="Path 194477" d="M-3.788-3.788h11V8.063h-11z" fill="#090"/></g><g data-name="Group 97885" transform="translate(7.693 27.567)" clip-path="url(#s)"><path data-name="Path 194479" d="M-3.788-3.788H6.994V8.917H-3.788z" fill="#090"/></g><g data-name="Group 97886" transform="translate(14.104 8.548)" clip-path="url(#t)"><path data-name="Path 194481" d="M-3.789-3.788H6.996V8.917H-3.789z" fill="#090"/></g><g data-name="Group 97887" transform="translate(10.044 10.899)" clip-path="url(#u)"><path data-name="Path 194483" d="M-3.789-3.788h9.927V8.49h-9.927z" fill="#9c0"/></g><g data-name="Group 97888" transform="translate(12.395 25.43)" clip-path="url(#v)"><path data-name="Path 194485" d="M-3.788-3.788h9.927V8.49h-9.927z" fill="#9c0"/></g><g data-name="Group 97889" transform="translate(7.479 12.181)" clip-path="url(#w)"><path data-name="Path 194487" d="M-3.788-3.788H6.14V8.063h-9.928z" fill="#9c0"/></g><g data-name="Group 97890" transform="translate(14.959 24.789)" clip-path="url(#x)"><path data-name="Path 194489" d="M-3.788-3.788h9.927V8.063h-9.927z" fill="#9c0"/></g><g data-name="Group 97891" transform="translate(5.129 14.318)" clip-path="url(#y)"><path data-name="Path 194491" d="M-3.789-3.786h11.21V6.782h-11.21z" fill="#9c0"/></g><g data-name="Group 97892" transform="translate(16.241 23.934)" clip-path="url(#z)"><path data-name="Path 194493" d="M-3.788-3.788H7.421V6.994H-3.788z" fill="#9c0"/></g><g data-name="Group 97893" transform="translate(3.419 16.882)" clip-path="url(#A)"><path data-name="Path 194495" d="M-3.788-3.788H8.276v9.927H-3.788z" fill="#9c0"/></g><g data-name="Group 97894" transform="translate(17.096 21.797)" clip-path="url(#B)"><path data-name="Path 194497" d="M-3.788-3.789H8.276v9.931H-3.788z" fill="#9c0"/></g><g data-name="Group 97895" transform="translate(2.778 19.233)" clip-path="url(#C)"><path data-name="Path 194499" d="M-3.788-3.788H8.49V6.353H-3.788z" fill="#9c0"/></g><g data-name="Group 97896" transform="translate(17.523 19.233)" clip-path="url(#D)"><path data-name="Path 194501" d="M-3.789-3.788H8.489V6.353H-3.789z" fill="#9c0"/></g><g data-name="Group 97897" transform="translate(3.419 21.797)" clip-path="url(#E)"><path data-name="Path 194503" d="M-3.788-3.789H8.276v9.931H-3.788z" fill="#9c0"/></g><g data-name="Group 97898" transform="translate(17.096 16.882)" clip-path="url(#F)"><path data-name="Path 194505" d="M-3.788-3.788H8.276v9.927H-3.788z" fill="#9c0"/></g><g data-name="Group 97899" transform="translate(5.129 23.934)" clip-path="url(#G)"><path data-name="Path 194507" d="M-3.789-3.788h11.21V6.78h-11.21z" fill="#9c0"/></g><g data-name="Group 97900" transform="translate(16.241 14.318)" clip-path="url(#H)"><path data-name="Path 194509" d="M-3.788-3.786H7.421V6.782H-3.788z" fill="#9c0"/></g><g data-name="Group 97901" transform="translate(10.044 25.43)" clip-path="url(#I)"><path data-name="Path 194511" d="M-3.789-3.788h9.927V8.49h-9.927z" fill="#9c0"/></g><g data-name="Group 97902" transform="translate(7.479 24.789)" clip-path="url(#J)"><path data-name="Path 194513" d="M-3.788-3.788H6.14V8.063h-9.928z" fill="#9c0"/></g><g data-name="Group 97903" transform="translate(12.395 10.899)" clip-path="url(#K)"><path data-name="Path 194515" d="M-3.788-3.788h9.927V8.49h-9.927z" fill="#9c0"/></g><g data-name="Group 97904" transform="translate(14.959 12.181)" clip-path="url(#L)"><path data-name="Path 194517" d="M-3.788-3.788h9.927V8.063h-9.927z" fill="#9c0"/></g><g data-name="Group 97905" transform="translate(7.479 15.6)" clip-path="url(#M)"><path data-name="Path 194519" d="M-3.788-3.788h17.62v17.41h-17.62z" fill="#fff"/></g><g data-name="Group 97906" transform="translate(9.83 13.677)" clip-path="url(#N)"><path data-name="Path 194521" d="M-3.789-3.789h9.286V8.275h-9.286z" fill="#ffe600"/></g><g data-name="Group 97907" transform="translate(13.249 23.079)" clip-path="url(#O)"><path data-name="Path 194523" d="M-3.788-3.788h9.286V8.276h-9.286z" fill="#ffe600"/></g><g data-name="Group 97908" transform="translate(7.693 14.959)" clip-path="url(#P)"><path data-name="Path 194525" d="M-3.788-3.788H6.994V7.421H-3.788z" fill="#ffe600"/></g><g data-name="Group 97909" transform="translate(13.89 22.438)" clip-path="url(#Q)"><path data-name="Path 194527" d="M-3.789-3.789H6.993v11.21H-3.789z" fill="#ffe600"/></g><g data-name="Group 97910" transform="translate(5.984 16.882)" clip-path="url(#R)"><path data-name="Path 194529" d="M-3.786-3.788H8.062v9.927H-3.786z" fill="#ffe600"/></g><g data-name="Group 97911" transform="translate(14.745 21.797)" clip-path="url(#S)"><path data-name="Path 194531" d="M-3.788-3.789h11.85v9.931h-11.85z" fill="#ffe600"/></g><g data-name="Group 97912" transform="translate(5.342 18.806)" clip-path="url(#T)"><path data-name="Path 194533" d="M-3.789-3.788H8.489v9.286H-3.789z" fill="#ffe600"/></g><g data-name="Group 97913" transform="translate(14.959 20.515)" clip-path="url(#U)"><path data-name="Path 194535" d="M-3.788-3.788H8.49v9.286H-3.788z" fill="#ffe600"/></g><g data-name="Group 97914" transform="translate(5.342 20.515)" clip-path="url(#V)"><path data-name="Path 194537" d="M-3.789-3.788H8.489v9.286H-3.789z" fill="#ffe600"/></g><g data-name="Group 97915" transform="translate(14.959 18.806)" clip-path="url(#W)"><path data-name="Path 194539" d="M-3.788-3.788H8.49v9.286H-3.788z" fill="#ffe600"/></g><g data-name="Group 97916" transform="translate(5.984 21.797)" clip-path="url(#X)"><path data-name="Path 194541" d="M-3.786-3.789H8.062v9.931H-3.786z" fill="#ffe600"/></g><g data-name="Group 97917" transform="translate(14.745 16.882)" clip-path="url(#Y)"><path data-name="Path 194543" d="M-3.788-3.788h11.85v9.927h-11.85z" fill="#ffe600"/></g><g data-name="Group 97918" transform="translate(11.54 23.079)" clip-path="url(#Z)"><path data-name="Path 194545" d="M-3.788-3.788h9.286V8.49h-9.286z" fill="#ffe600"/></g><g data-name="Group 97919" transform="translate(9.83 23.079)" clip-path="url(#aa)"><path data-name="Path 194547" d="M-3.789-3.788h9.286V8.276h-9.286z" fill="#ffe600"/></g><g data-name="Group 97920" transform="translate(7.693 22.438)" clip-path="url(#ab)"><path data-name="Path 194549" d="M-3.788-3.789H6.994v11.21H-3.788z" fill="#ffe600"/></g><g data-name="Group 97921" transform="translate(11.54 13.249)" clip-path="url(#ac)"><path data-name="Path 194551" d="M-3.788-3.788h9.286V8.49h-9.286z" fill="#ffe600"/></g><g data-name="Group 97922" transform="translate(13.249 13.677)" clip-path="url(#ad)"><path data-name="Path 194553" d="M-3.788-3.789h9.286V8.275h-9.286z" fill="#ffe600"/></g><g data-name="Group 97923" transform="translate(13.89 14.959)" clip-path="url(#ae)"><path data-name="Path 194555" d="M-3.789-3.788H6.993V7.421H-3.789z" fill="#ffe600"/></g></svg>