<svg xmlns="http://www.w3.org/2000/svg" width="35" height="31.818"><g fill-rule="evenodd"><path d="M33.612 10.518a17.263 17.263 0 00-3.747-5.477 17.711 17.711 0 00-24.748 0 17.045 17.045 0 00-3.745 5.477 16.77 16.77 0 00-1.374 6.681 16.964 16.964 0 00.35 3.453l5.4 3.823.849 6.523h8.828l.525.317a2.466 2.466 0 001.549.5 2.427 2.427 0 001.536-.5l.485-.317h8.919l.835-6.523 5.375-3.823a17.967 17.967 0 00.35-3.453 16.553 16.553 0 00-1.387-6.681z" fill="#cc2229"/><path d="M30.933 12.526a6.822 6.822 0 00-2.261-3.66l-8.148 13.71 7.212-15.031a7.354 7.354 0 00-3.72-2.575l-4.991 17.045 3.653-17.736a7.512 7.512 0 00-3.626-.928l-.816.052-.722 18.455-.763-18.455-.8-.052a7.474 7.474 0 00-3.626.928l3.613 17.736-4.95-17.043a7.243 7.243 0 00-3.72 2.575l7.252 15.031-8.189-13.71a6.821 6.821 0 00-2.261 3.66l9.125 10.953-9.393-9.215a7.009 7.009 0 00-.642 2.928 7.392 7.392 0 00.227 1.8l5.272 3.764.7 5.058h6.409l.91.68a1.553 1.553 0 00.83.261 1.428 1.428 0 00.8-.261l.963-.68h6.436l.656-5.058 5.252-3.762a8.1 8.1 0 00.228-1.8 7.227 7.227 0 00-.642-2.928l-9.339 9.211z" fill="#f6d330"/></g></svg>